<?xml version="1.0" encoding="utf-8"?>
<!-- Generator: Adobe Illustrator 27.1.1, SVG Export Plug-In . SVG Version: 6.00 Build 0)  -->
<svg version="1.1" id="Layer_1" xmlns="http://www.w3.org/2000/svg" xmlns:xlink="http://www.w3.org/1999/xlink" x="0px" y="0px"
	 viewBox="0 0 1050 200" enable-background="new 0 0 1050 200" xml:space="preserve">
<g id="button">
	<path id="blue" fill="#181825" d="M1018,200H32c-17.700001,0-32-14.300003-32-32V32C0,14.3,14.3,0,32,0h986
		c17.699951,0,32,14.3,32,32v136C1050,185.699997,1035.699951,200,1018,200z"/>
</g>
<g id="donate">
	<g>
		<path fill="#FFFFFF" d="M73.300003,110.599998C73.300003,97.5,80.100006,89.199997,90.5,89.199997
			c5.900002,0,10.599998,3.099998,12.800003,7.699997H103.5V79.300003c0-3.300003,2-5.099998,4.800003-5.099998
			s4.900002,1.800003,4.900002,5.099998v47.900002c0,3.099998-2,4.900002-4.800003,4.900002S103.5,130.400009,103.5,127.200005V124
			h-0.199997c-2,4.800003-6.400002,8-12.900002,8C80,132,73.300003,123.800003,73.300003,110.599998z M103.5,110.599998
			c0-8.099998-4-13.400002-10.199997-13.400002c-6.300003,0-10.199997,5.199997-10.199997,13.400002S87.000008,124,93.300003,124
			C99.5,124,103.5,118.800003,103.5,110.599998z"/>
		<path fill="#FFFFFF" d="M205.5,131.699997c-3.300003,0-5.199997-2-5.199997-5.699997v-19.699997c0-5.400002-2.699997-8.5-7.5-8.5
			c-5.399994,0-8.699997,3.900002-8.699997,10.400002V126c0,3.600006-1.899994,5.699997-5.199997,5.699997
			s-5.199997-2-5.199997-5.699997V95c0-3.400002,2-5.5,5.100006-5.5s4.899994,1.800003,5,5.199997v2.5h0.5
			c1.600006-4.900002,6.300003-8,12.300003-8c8.800003,0,13.800003,5.199997,13.800003,14.300003V126
			C210.600006,129.699997,208.800003,131.699997,205.5,131.699997z"/>
		<path fill="#FFFFFF" d="M232,131.899994c-8.100006,0-13.600006-5.099998-13.600006-12.599998
			c0-7.699997,5.699997-12.400002,15.100006-12.400002h9.800003v-3.400002c0-4.199997-2.600006-6.400002-7.300003-6.400002
			c-3.100006,0-5.399994,1.199997-7.699997,3.199997c-1.199997,0.900002-2.300003,1.400002-3.899994,1.400002
			c-2.300003,0-3.699997-1.5-3.699997-3.599998c0-2.400002,1.699997-4.900002,5.300003-6.699997
			c2.600006-1.400002,6.100006-2.099998,10.600006-2.099998c10.899994,0,17,5.199997,17,14.300003v22.700005
			c0,3.5-1.800003,5.5-5,5.5c-2.699997,0-4.5-1.5-4.800003-4.199997v-1.400002h-0.5
			C241.100006,129.800003,237,131.899994,232,131.899994z M235.399994,124.5c4.5,0,7.899994-3,7.899994-7v-4.300003h-8
			c-4.199997,0-6.699997,2-6.699997,5.400002C228.600006,122.099998,231.399994,124.5,235.399994,124.5z"/>
		<path fill="#FFFFFF" d="M266.299988,98.300003h-2.100006c-2.799988,0-4.399994-1.5-4.399994-4s1.600006-4,4.399994-4h2.299988
			v-5.400002c0-3.599998,1.799988-5.5,5-5.5s5,2,5,5.5v5.400002h4.100006c2.799988,0,4.399994,1.5,4.399994,4
			s-1.600006,4-4.399994,4h-4v20.900002c0,3.800003,1,5,4.100006,5c1.100006,0,1.799988-0.199997,2.700012-0.199997
			c1.799988,0,3,1.199997,3,3.099998c0,1.5-0.700012,2.800003-2.100006,3.699997s-3.600006,1.399994-6.399994,1.399994
			c-8.200012,0-11.700012-3.399994-11.700012-11.900002V98.300003H266.299988z"/>
		<path fill="#FFFFFF" d="M291.299988,108c0-11.300003,7.5-19,18.600006-19c10.5,0,18,7.5,18,17.699997
			c0,4.599998-1.299988,6.199997-5.200012,6.199997h-21v1.800003c0,5.800003,3.700012,9.5,9.799988,9.5
			c3.200012,0,5.5-0.800003,7.299988-2.300003c2-1.5,2.700012-2.099998,4.299988-2.099998
			c2.100006,0,3.600006,1.5,3.600006,3.800003c0,1.800003-1.100006,3.599998-3.100006,5.000008
			c-2.700012,2.300003-7.5,3.699997-12.799988,3.699997c-12.100006,0-19.600006-7.099998-19.600006-18.900002V108H291.299988z
			 M318.100006,106.400002L318.100006,106.400002c0-5.699997-3.100006-9.400002-8-9.400002
			c-5.100006,0-8.299988,3.800003-8.299988,9.300003v0.099998H318.100006z"/>
		<path fill="#FFFFFF" d="M359.5,97.099998c-0.299988-1.199997-0.399994-1.900002-0.399994-2.5c0-2.900002,2.100006-5,5.200012-5
			c2.700012,0,4.5,1.800003,5,5.099998l5.200012,25.900002h0.5l6.200012-24.5C382.400055,91.299995,384.100037,89.5,387.500031,89.5
			s5.200012,1.800003,6.399994,6.599998l6.299988,24.5h0.5l5.399994-25.900002c0.600006-3.199997,2.399994-5.099998,5-5.099998
			c3.100006,0,5,2,5,4.699997c0,0.599998-0.200012,1.5-0.5,2.699997l-7.200012,26.5
			c-1.700012,6.200005-3.700012,8.200005-7.299988,8.200005c-3.899994,0-5.899994-2-7.5-8.199997l-6-21.800003h-0.399994
			L381.400024,123.5c-1.600006,6.300003-3.399994,8.199997-7.299988,8.199997c-3.799988,0-5.899994-2.100006-7.5-8.199997
			L359.5,97.099998z"/>
		<path fill="#FFFFFF" d="M426.899994,74c3.399994,0,5.899994,2.300003,5.899994,5.400002s-2.5,5.400002-5.899994,5.400002
			c-3.299988,0-5.799988-2.300003-5.799988-5.400002S423.600006,74,426.899994,74z M426.899994,131.699997
			c-3.200012,0-5.100006-2-5.100006-5.699997V95.199997c0-3.800003,2-5.699997,5.200012-5.699997s5.100006,2,5.100006,5.699997
			v30.900002C432.100006,129.800003,430.100006,131.699997,426.899994,131.699997z"/>
		<path fill="#FFFFFF" d="M444,98.300003h-2.100006c-2.799988,0-4.399994-1.5-4.399994-4s1.600006-4,4.399994-4h2.299988v-5.400002
			c0-3.599998,1.799988-5.5,5-5.5s5,2,5,5.5v5.400002h4.100006c2.799988,0,4.399994,1.5,4.399994,4s-1.600006,4-4.399994,4h-4
			v20.900002c0,3.800003,1,5,4.100006,5c1.100006,0,1.799988-0.199997,2.700012-0.199997c1.799988,0,3,1.199997,3,3.099998
			c0,1.5-0.700012,2.800003-2.100006,3.699997s-3.600006,1.399994-6.399994,1.399994
			c-8.200012,0-11.700012-3.399994-11.700012-11.900002V98.300003H444z"/>
		<path fill="#FFFFFF" d="M501.100006,131.699997c-3.299988,0-5.200012-2-5.200012-5.699997v-19.599998
			c0-5.400002-2.799988-8.5-7.600006-8.5c-5.299988,0-8.799988,4-8.799988,10.400002v17.800003
			c0,3.600006-1.899994,5.699997-5.200012,5.699997s-5.100006-2-5.100006-5.699997V80.599998
			c0-3.599998,1.799988-5.699997,5.200012-5.699997C477.699982,74.900002,479.5,77,479.5,80.599998v16.599998h0.5
			c1.399994-4.699997,6.5-8,12.399994-8c8.600006,0,13.799988,5.400002,13.799988,14.400002V126
			C506.299988,129.699997,504.399994,131.699997,501.100006,131.699997z"/>
	</g>
	<path id="heart_2_" fill="#FFFFFF" d="M154.300003,89.199997c-4.300003,0-8.5,2.099998-10.800003,6.699997
		c-2.300003-4.599998-6.5-6.699997-10.800003-6.699997C126,89.199997,120,93.899994,120,102.299995
		c0,14.199997,19.399994,21.400002,23.5,29.900002c4.100006-8.5,23.5-15.699997,23.5-29.900002
		C167,93.300003,160.300003,89.199997,154.300003,89.199997z M150.199997,99.199997c3,0,5.699997,2,5.699997,6
		c0,6.300003-8.300003,10.599998-12.800003,15.199997c-4.399994-4.599998-12.800003-8.900002-12.800003-15.199997
		c0-3.900002,2.600006-6,5.699997-6c4.100006,0,6.199997,4.599998,7,6.800003
		C144,103.800003,146.199997,99.199997,150.199997,99.199997z"/>
</g>
<g id="PayPal">
	<path fill="#FFFFFF" d="M888.700012,89.699997c-1.200012,8-7.299988,8-13.200012,8h-3.400024L874.5,82.799995
		c0.099976-0.900002,0.900024-1.599998,1.799988-1.599998h1.5c4,0,7.799988,0,9.700012,2.300003
		C888.799988,84.900002,889.099976,86.900002,888.700012,89.699997 M886.099976,68.900002h-22.200012
		c-1.5,0-2.799988,1.099998-3,2.599998l-9,56.899994c-0.200012,1,0.5,2,1.5,2.100006c0.099976,0,0.200012,0,0.299988,0h11.400024
		c1.099976,0,2-0.800003,2.099976-1.800003l2.5-16.099998c0.200012-1.5,1.5-2.599998,3.099976-2.599998h7
		c14.599976,0,23.099976-7.099998,25.299988-21.099998c1-6.099998,0-11-2.799988-14.300003
		C899.200012,70.900002,893.599976,68.900002,886.099976,68.900002 M730.200012,89.699997c-1.200012,8-7.299988,8-13.200012,8
		h-3.400024L716,82.799995c0.099976-0.900002,0.900024-1.599998,1.799988-1.599998h1.5c4,0,7.799988,0,9.700012,2.300003
		C730.299988,84.900002,730.700012,86.900002,730.200012,89.699997 M727.700012,68.900002H705.5
		c-1.5,0-2.799988,1.099998-3.099976,2.599998l-9,56.899994c-0.200012,1,0.5,2,1.5,2.100006c0.099976,0,0.200012,0,0.299988,0
		h10.599976c1.5,0,2.799988-1.100006,3-2.599998L711.200012,112.5c0.200012-1.5,1.5-2.599998,3-2.599998h7
		c14.599976,0,23.099976-7.099998,25.299988-21.099998c1-6.099998,0-11-2.799988-14.300003
		C740.700012,70.900002,735.099976,68.900002,727.700012,68.900002 M779.299988,110.199997
		c-1,6.099998-5.900024,10.199997-12,10.199997c-3.099976,0-5.599976-1-7.099976-2.900002
		c-1.599976-1.900002-2.200012-4.5-1.700012-7.5c1-6,5.900024-10.199997,11.900024-10.199997c3,0,5.5,1,7.099976,2.900002
		C779.099976,104.5,779.700012,107.199997,779.299988,110.199997 M794.099976,89.5H783.5
		c-0.900024,0-1.700012,0.699997-1.799988,1.599998l-0.5,3L780.5,93c-2.299988-3.300003-7.400024-4.5-12.599976-4.5
		c-11.799988,0-21.799988,8.900002-23.700012,21.400002c-1,6.199997,0.400024,12.199997,4,16.299995
		c3.200012,3.800003,7.900024,5.399994,13.400024,5.399994c9.5,0,14.700012-6.099998,14.700012-6.099998l-0.5,3.000008
		c-0.200012,1,0.5,2,1.5,2.100006c0.099976,0,0.200012,0,0.299988,0h9.599976c1.5,0,2.799988-1.100006,3-2.600006L796,91.599998
		c0.200012-1-0.5-2-1.5-2.099998C794.299988,89.5,794.200012,89.5,794.099976,89.5 M937.700012,110.199997
		c-1,6.099998-5.900024,10.199997-12,10.199997c-3.099976,0-5.599976-1-7.099976-2.900002
		c-1.599976-1.900002-2.200012-4.5-1.700012-7.5c1-6,5.900024-10.199997,11.900024-10.199997c3,0,5.5,1,7.099976,2.900002
		C937.5,104.5,938.200012,107.199997,937.700012,110.199997 M952.5,89.5h-10.599976
		c-0.900024,0-1.700012,0.699997-1.799988,1.599998l-0.5,3L938.900024,93c-2.299988-3.300003-7.400024-4.5-12.599976-4.5
		c-11.799988,0-21.799988,8.900002-23.700012,21.400002c-1,6.199997,0.400024,12.199997,4,16.299995
		c3.200012,3.800003,7.900024,5.399994,13.400024,5.399994c9.5,0,14.700012-6.099998,14.700012-6.099998l-0.5,3.000008
		c-0.200012,1,0.5,2,1.5,2.100006c0.099976,0,0.200012,0,0.299988,0h9.599976c1.5,0,2.799988-1.100006,3-2.600006
		l5.799988-36.400002c0.200012-1-0.5-2-1.5-2.099998C952.700012,89.5,952.599976,89.5,952.5,89.5 M850.700012,89.5H840
		c-1,0-2,0.5-2.599976,1.400002l-14.700012,21.700005l-6.299988-20.900002c-0.400024-1.300003-1.599976-2.199997-3-2.199997H803
		c-1,0-1.900024,0.800003-1.900024,1.900002c0,0.199997,0,0.400002,0.099976,0.599998l11.799988,34.5L802,142.100006
		C801.099976,143.300003,802,145,803.5,145h10.700012c1,0,2-0.5,2.5-1.300003l35.599976-51.300003
		C853.099976,91.099998,852.200012,89.5,850.700012,89.5 M965.099976,70.5L956,128.5c-0.200012,1,0.5,2,1.5,2.100006
		c0.099976,0,0.200012,0,0.299988,0H967c1.5,0,2.799988-1.100006,3-2.600006l9-56.900002c0.200012-1-0.5-2-1.5-2.099998
		c-0.099976,0-0.200012,0-0.299988,0h-10.299988C966,68.900002,965.200012,69.599998,965.099976,70.5"/>
	<g>
		<path opacity="0.678" fill="#FFFFFF" enable-background="new    " d="M649.900024,71.900002
			c1.200012-7.599998,0-12.799999-4.099976-17.5C641.300049,49.200001,633.100037,47,622.600037,47H592
			c-2.099976,0-4,1.599998-4.299988,3.700001L575,131.100006c-0.200012,1.399994,0.700012,2.800003,2.200012,3
			c0.099976,0,0.299988,0,0.400024,0h18.799988l-1.299988,8.199997c-0.200012,1.199997,0.700012,2.399994,1.900024,2.600006
			c0.099976,0,0.200012,0,0.400024,0h15.900024c1.900024,0,3.5-1.399994,3.799988-3.199997l0.200012-0.800003l3-18.900002
			l0.200012-1c0.299988-1.900002,1.900024-3.199997,3.799988-3.199997h2.400024c15.400024,0,27.400024-6.199997,30.900024-24.299995
			c1.5-7.5,0.700012-13.800003-3.200012-18.300003C653,73.900002,651.599976,72.800003,649.900024,71.900002"/>
		<path opacity="0.696" fill="#FFFFFF" enable-background="new    " d="M649.900024,71.900002
			c1.200012-7.599998,0-12.799999-4.099976-17.5C641.300049,49.200001,633.100037,47,622.600037,47H592
			c-2.099976,0-4,1.599998-4.299988,3.700001L575,131.100006c-0.200012,1.399994,0.700012,2.800003,2.200012,3
			c0.099976,0,0.299988,0,0.400024,0h18.799988l4.700012-30l-0.099976,0.900002
			c0.299988-2.099998,2.099976-3.699997,4.299988-3.699997h8.900024c17.599976,0,31.299988-7.099998,35.299988-27.799995
			C649.700012,73.099998,649.799988,72.5,649.900024,71.900002"/>
		<path fill="#FFFFFF" d="M606.200012,72C606.5,70.099998,608.100037,68.800003,610,68.800003h23.900024
			c2.799988,0,5.5,0.199997,7.900024,0.599998c0.700012,0.099998,1.400024,0.199997,2,0.400002
			c0.900024,0.199997,1.900024,0.5,2.799988,0.800003c1.099976,0.400002,2.200012,0.800003,3.299988,1.400002
			c1.200012-7.599998,0-12.799999-4.099976-17.5c-4.5-5.200001-12.700012-7.400002-23.200012-7.400002H592
			c-2.099976,0-4,1.599998-4.299988,3.700001L575,131.100006c-0.200012,1.399994,0.700012,2.800003,2.200012,3
			c0.099976,0,0.299988,0,0.400024,0h18.799988l4.700012-30L606.200012,72L606.200012,72z"/>
	</g>
</g>
</svg>
