<?xml version="1.0" encoding="utf-8"?>
<!-- Generator: Adobe Illustrator 27.1.1, SVG Export Plug-In . SVG Version: 6.00 Build 0)  -->
<svg version="1.1" id="Layer_1" xmlns="http://www.w3.org/2000/svg" xmlns:xlink="http://www.w3.org/1999/xlink" x="0px" y="0px"
	 viewBox="0 0 1050 200" enable-background="new 0 0 1050 200" xml:space="preserve">
<g id="button">
	<path id="blue" fill="#181825" d="M1018,200H32c-17.7000008,0-32-14.3000031-32-32V32C0,14.3000002,14.3000002,0,32,0h986
		c17.6999512,0,32,14.3000002,32,32v136C1050,185.6999969,1035.6999512,200,1018,200z"/>
</g>
<g id="donate">
	<g>
		<path fill="#FFFFFF" d="M73.3000031,110.5999985C73.3000031,97.5,80.1000061,89.1999969,90.5,89.1999969
			c5.9000015,0,10.5999985,3.0999985,12.8000031,7.6999969H103.5V79.3000031c0-3.3000031,2-5.0999985,4.8000031-5.0999985
			s4.9000015,1.8000031,4.9000015,5.0999985v47.9000015c0,3.0999985-2,4.9000015-4.8000031,4.9000015
			S103.5,130.4000092,103.5,127.2000046V124h-0.1999969c-2,4.8000031-6.4000015,8-12.9000015,8
			C80,132,73.3000031,123.8000031,73.3000031,110.5999985z M103.5,110.5999985c0-8.0999985-4-13.4000015-10.1999969-13.4000015
			c-6.3000031,0-10.1999969,5.1999969-10.1999969,13.4000015S87.0000076,124,93.3000031,124
			C99.5,124,103.5,118.8000031,103.5,110.5999985z"/>
		<path fill="#FFFFFF" d="M205.5,131.6999969c-3.3000031,0-5.1999969-2-5.1999969-5.6999969v-19.6999969
			c0-5.4000015-2.6999969-8.5-7.5-8.5c-5.3999939,0-8.6999969,3.9000015-8.6999969,10.4000015V126
			c0,3.6000061-1.8999939,5.6999969-5.1999969,5.6999969s-5.1999969-2-5.1999969-5.6999969V95c0-3.4000015,2-5.5,5.1000061-5.5
			s4.8999939,1.8000031,5,5.1999969v2.5h0.5c1.6000061-4.9000015,6.3000031-8,12.3000031-8
			c8.8000031,0,13.8000031,5.1999969,13.8000031,14.3000031V126C210.6000061,129.6999969,208.8000031,131.6999969,205.5,131.6999969
			z"/>
		<path fill="#FFFFFF" d="M232,131.8999939c-8.1000061,0-13.6000061-5.0999985-13.6000061-12.5999985
			c0-7.6999969,5.6999969-12.4000015,15.1000061-12.4000015h9.8000031v-3.4000015
			c0-4.1999969-2.6000061-6.4000015-7.3000031-6.4000015c-3.1000061,0-5.3999939,1.1999969-7.6999969,3.1999969
			c-1.1999969,0.9000015-2.3000031,1.4000015-3.8999939,1.4000015c-2.3000031,0-3.6999969-1.5-3.6999969-3.5999985
			c0-2.4000015,1.6999969-4.9000015,5.3000031-6.6999969c2.6000061-1.4000015,6.1000061-2.0999985,10.6000061-2.0999985
			c10.8999939,0,17,5.1999969,17,14.3000031v22.7000046c0,3.5-1.8000031,5.5-5,5.5c-2.6999969,0-4.5-1.5-4.8000031-4.1999969
			v-1.4000015h-0.5C241.1000061,129.8000031,237,131.8999939,232,131.8999939z M235.3999939,124.5c4.5,0,7.8999939-3,7.8999939-7
			v-4.3000031h-8c-4.1999969,0-6.6999969,2-6.6999969,5.4000015C228.6000061,122.0999985,231.3999939,124.5,235.3999939,124.5z"/>
		<path fill="#FFFFFF" d="M266.2999878,98.3000031h-2.1000061c-2.7999878,0-4.3999939-1.5-4.3999939-4s1.6000061-4,4.3999939-4
			h2.2999878v-5.4000015c0-3.5999985,1.7999878-5.5,5-5.5s5,2,5,5.5v5.4000015h4.1000061c2.7999878,0,4.3999939,1.5,4.3999939,4
			s-1.6000061,4-4.3999939,4h-4v20.9000015c0,3.8000031,1,5,4.1000061,5c1.1000061,0,1.7999878-0.1999969,2.7000122-0.1999969
			c1.7999878,0,3,1.1999969,3,3.0999985c0,1.5-0.7000122,2.8000031-2.1000061,3.6999969s-3.6000061,1.3999939-6.3999939,1.3999939
			c-8.2000122,0-11.7000122-3.3999939-11.7000122-11.9000015V98.3000031H266.2999878z"/>
		<path fill="#FFFFFF" d="M291.2999878,108c0-11.3000031,7.5-19,18.6000061-19c10.5,0,18,7.5,18,17.6999969
			c0,4.5999985-1.2999878,6.1999969-5.2000122,6.1999969h-21v1.8000031c0,5.8000031,3.7000122,9.5,9.7999878,9.5
			c3.2000122,0,5.5-0.8000031,7.2999878-2.3000031c2-1.5,2.7000122-2.0999985,4.2999878-2.0999985
			c2.1000061,0,3.6000061,1.5,3.6000061,3.8000031c0,1.8000031-1.1000061,3.5999985-3.1000061,5.0000076
			c-2.7000122,2.3000031-7.5,3.6999969-12.7999878,3.6999969c-12.1000061,0-19.6000061-7.0999985-19.6000061-18.9000015V108
			H291.2999878z M318.1000061,106.4000015L318.1000061,106.4000015c0-5.6999969-3.1000061-9.4000015-8-9.4000015
			c-5.1000061,0-8.2999878,3.8000031-8.2999878,9.3000031v0.0999985H318.1000061z"/>
		<path fill="#FFFFFF" d="M359.5,97.0999985c-0.2999878-1.1999969-0.3999939-1.9000015-0.3999939-2.5
			c0-2.9000015,2.1000061-5,5.2000122-5c2.7000122,0,4.5,1.8000031,5,5.0999985l5.2000122,25.9000015h0.5l6.2000122-24.5
			C382.4000549,91.2999954,384.1000366,89.5,387.5000305,89.5s5.2000122,1.8000031,6.3999939,6.5999985l6.2999878,24.5h0.5
			l5.3999939-25.9000015c0.6000061-3.1999969,2.3999939-5.0999985,5-5.0999985c3.1000061,0,5,2,5,4.6999969
			c0,0.5999985-0.2000122,1.5-0.5,2.6999969l-7.2000122,26.5c-1.7000122,6.2000046-3.7000122,8.2000046-7.2999878,8.2000046
			c-3.8999939,0-5.8999939-2-7.5-8.1999969l-6-21.8000031h-0.3999939L381.4000244,123.5
			c-1.6000061,6.3000031-3.3999939,8.1999969-7.2999878,8.1999969c-3.7999878,0-5.8999939-2.1000061-7.5-8.1999969L359.5,97.0999985
			z"/>
		<path fill="#FFFFFF" d="M426.8999939,74c3.3999939,0,5.8999939,2.3000031,5.8999939,5.4000015s-2.5,5.4000015-5.8999939,5.4000015
			c-3.2999878,0-5.7999878-2.3000031-5.7999878-5.4000015S423.6000061,74,426.8999939,74z M426.8999939,131.6999969
			c-3.2000122,0-5.1000061-2-5.1000061-5.6999969V95.1999969c0-3.8000031,2-5.6999969,5.2000122-5.6999969
			s5.1000061,2,5.1000061,5.6999969v30.9000015C432.1000061,129.8000031,430.1000061,131.6999969,426.8999939,131.6999969z"/>
		<path fill="#FFFFFF" d="M444,98.3000031h-2.1000061c-2.7999878,0-4.3999939-1.5-4.3999939-4s1.6000061-4,4.3999939-4h2.2999878
			v-5.4000015c0-3.5999985,1.7999878-5.5,5-5.5s5,2,5,5.5v5.4000015h4.1000061c2.7999878,0,4.3999939,1.5,4.3999939,4
			s-1.6000061,4-4.3999939,4h-4v20.9000015c0,3.8000031,1,5,4.1000061,5c1.1000061,0,1.7999878-0.1999969,2.7000122-0.1999969
			c1.7999878,0,3,1.1999969,3,3.0999985c0,1.5-0.7000122,2.8000031-2.1000061,3.6999969s-3.6000061,1.3999939-6.3999939,1.3999939
			c-8.2000122,0-11.7000122-3.3999939-11.7000122-11.9000015V98.3000031H444z"/>
		<path fill="#FFFFFF" d="M501.1000061,131.6999969c-3.2999878,0-5.2000122-2-5.2000122-5.6999969v-19.5999985
			c0-5.4000015-2.7999878-8.5-7.6000061-8.5c-5.2999878,0-8.7999878,4-8.7999878,10.4000015v17.8000031
			c0,3.6000061-1.8999939,5.6999969-5.2000122,5.6999969s-5.1000061-2-5.1000061-5.6999969V80.5999985
			c0-3.5999985,1.7999878-5.6999969,5.2000122-5.6999969C477.6999817,74.9000015,479.5,77,479.5,80.5999985v16.5999985h0.5
			c1.3999939-4.6999969,6.5-8,12.3999939-8c8.6000061,0,13.7999878,5.4000015,13.7999878,14.4000015V126
			C506.2999878,129.6999969,504.3999939,131.6999969,501.1000061,131.6999969z"/>
	</g>
	<path id="heart_2_" fill="#FFFFFF" d="M154.3000031,89.1999969c-4.3000031,0-8.5,2.0999985-10.8000031,6.6999969
		c-2.3000031-4.5999985-6.5-6.6999969-10.8000031-6.6999969C126,89.1999969,120,93.8999939,120,102.2999954
		c0,14.1999969,19.3999939,21.4000015,23.5,29.9000015c4.1000061-8.5,23.5-15.6999969,23.5-29.9000015
		C167,93.3000031,160.3000031,89.1999969,154.3000031,89.1999969z M150.1999969,99.1999969c3,0,5.6999969,2,5.6999969,6
		c0,6.3000031-8.3000031,10.5999985-12.8000031,15.1999969c-4.3999939-4.5999985-12.8000031-8.9000015-12.8000031-15.1999969
		c0-3.9000015,2.6000061-6,5.6999969-6c4.1000061,0,6.1999969,4.5999985,7,6.8000031
		C144,103.8000031,146.1999969,99.1999969,150.1999969,99.1999969z"/>
</g>
<g id="PayPal">
	<path fill="#FFFFFF" d="M888.7000122,89.6999969c-1.2000122,8-7.2999878,8-13.2000122,8h-3.4000244L874.5,82.7999954
		c0.0999756-0.9000015,0.9000244-1.5999985,1.7999878-1.5999985h1.5c4,0,7.7999878,0,9.7000122,2.3000031
		C888.7999878,84.9000015,889.0999756,86.9000015,888.7000122,89.6999969 M886.0999756,68.9000015h-22.2000122
		c-1.5,0-2.7999878,1.0999985-3,2.5999985l-9,56.8999939c-0.2000122,1,0.5,2,1.5,2.1000061c0.0999756,0,0.2000122,0,0.2999878,0
		h11.4000244c1.0999756,0,2-0.8000031,2.0999756-1.8000031l2.5-16.0999985c0.2000122-1.5,1.5-2.5999985,3.0999756-2.5999985h7
		c14.5999756,0,23.0999756-7.0999985,25.2999878-21.0999985c1-6.0999985,0-11-2.7999878-14.3000031
		C899.2000122,70.9000015,893.5999756,68.9000015,886.0999756,68.9000015 M730.2000122,89.6999969
		c-1.2000122,8-7.2999878,8-13.2000122,8h-3.4000244L716,82.7999954c0.0999756-0.9000015,0.9000244-1.5999985,1.7999878-1.5999985
		h1.5c4,0,7.7999878,0,9.7000122,2.3000031C730.2999878,84.9000015,730.7000122,86.9000015,730.2000122,89.6999969
		 M727.7000122,68.9000015H705.5c-1.5,0-2.7999878,1.0999985-3.0999756,2.5999985l-9,56.8999939c-0.2000122,1,0.5,2,1.5,2.1000061
		c0.0999756,0,0.2000122,0,0.2999878,0h10.5999756c1.5,0,2.7999878-1.1000061,3-2.5999985L711.2000122,112.5
		c0.2000122-1.5,1.5-2.5999985,3-2.5999985h7c14.5999756,0,23.0999756-7.0999985,25.2999878-21.0999985
		c1-6.0999985,0-11-2.7999878-14.3000031C740.7000122,70.9000015,735.0999756,68.9000015,727.7000122,68.9000015
		 M779.2999878,110.1999969c-1,6.0999985-5.9000244,10.1999969-12,10.1999969c-3.0999756,0-5.5999756-1-7.0999756-2.9000015
		c-1.5999756-1.9000015-2.2000122-4.5-1.7000122-7.5c1-6,5.9000244-10.1999969,11.9000244-10.1999969c3,0,5.5,1,7.0999756,2.9000015
		C779.0999756,104.5,779.7000122,107.1999969,779.2999878,110.1999969 M794.0999756,89.5H783.5
		c-0.9000244,0-1.7000122,0.6999969-1.7999878,1.5999985l-0.5,3L780.5,93c-2.2999878-3.3000031-7.4000244-4.5-12.5999756-4.5
		c-11.7999878,0-21.7999878,8.9000015-23.7000122,21.4000015c-1,6.1999969,0.4000244,12.1999969,4,16.2999954
		c3.2000122,3.8000031,7.9000244,5.3999939,13.4000244,5.3999939c9.5,0,14.7000122-6.0999985,14.7000122-6.0999985l-0.5,3.0000076
		c-0.2000122,1,0.5,2,1.5,2.1000061c0.0999756,0,0.2000122,0,0.2999878,0h9.5999756c1.5,0,2.7999878-1.1000061,3-2.6000061
		L796,91.5999985c0.2000122-1-0.5-2-1.5-2.0999985C794.2999878,89.5,794.2000122,89.5,794.0999756,89.5 M937.7000122,110.1999969
		c-1,6.0999985-5.9000244,10.1999969-12,10.1999969c-3.0999756,0-5.5999756-1-7.0999756-2.9000015
		c-1.5999756-1.9000015-2.2000122-4.5-1.7000122-7.5c1-6,5.9000244-10.1999969,11.9000244-10.1999969c3,0,5.5,1,7.0999756,2.9000015
		C937.5,104.5,938.2000122,107.1999969,937.7000122,110.1999969 M952.5,89.5h-10.5999756
		c-0.9000244,0-1.7000122,0.6999969-1.7999878,1.5999985l-0.5,3L938.9000244,93c-2.2999878-3.3000031-7.4000244-4.5-12.5999756-4.5
		c-11.7999878,0-21.7999878,8.9000015-23.7000122,21.4000015c-1,6.1999969,0.4000244,12.1999969,4,16.2999954
		c3.2000122,3.8000031,7.9000244,5.3999939,13.4000244,5.3999939c9.5,0,14.7000122-6.0999985,14.7000122-6.0999985l-0.5,3.0000076
		c-0.2000122,1,0.5,2,1.5,2.1000061c0.0999756,0,0.2000122,0,0.2999878,0h9.5999756c1.5,0,2.7999878-1.1000061,3-2.6000061
		l5.7999878-36.4000015c0.2000122-1-0.5-2-1.5-2.0999985C952.7000122,89.5,952.5999756,89.5,952.5,89.5 M850.7000122,89.5H840
		c-1,0-2,0.5-2.5999756,1.4000015l-14.7000122,21.7000046l-6.2999878-20.9000015
		c-0.4000244-1.3000031-1.5999756-2.1999969-3-2.1999969H803c-1,0-1.9000244,0.8000031-1.9000244,1.9000015
		c0,0.1999969,0,0.4000015,0.0999756,0.5999985l11.7999878,34.5L802,142.1000061C801.0999756,143.3000031,802,145,803.5,145
		h10.7000122c1,0,2-0.5,2.5-1.3000031l35.5999756-51.3000031C853.0999756,91.0999985,852.2000122,89.5,850.7000122,89.5
		 M965.0999756,70.5L956,128.5c-0.2000122,1,0.5,2,1.5,2.1000061c0.0999756,0,0.2000122,0,0.2999878,0H967
		c1.5,0,2.7999878-1.1000061,3-2.6000061l9-56.9000015c0.2000122-1-0.5-2-1.5-2.0999985c-0.0999756,0-0.2000122,0-0.2999878,0
		h-10.2999878C966,68.9000015,965.2000122,69.5999985,965.0999756,70.5"/>
	<g>
		<path opacity="0.678" fill="#FFFFFF" enable-background="new    " d="M649.9000244,71.9000015
			c1.2000122-7.5999985,0-12.7999992-4.0999756-17.5C641.3000488,49.2000008,633.1000366,47,622.6000366,47H592
			c-2.0999756,0-4,1.5999985-4.2999878,3.7000008L575,131.1000061c-0.2000122,1.3999939,0.7000122,2.8000031,2.2000122,3
			c0.0999756,0,0.2999878,0,0.4000244,0h18.7999878l-1.2999878,8.1999969
			c-0.2000122,1.1999969,0.7000122,2.3999939,1.9000244,2.6000061c0.0999756,0,0.2000122,0,0.4000244,0h15.9000244
			c1.9000244,0,3.5-1.3999939,3.7999878-3.1999969l0.2000122-0.8000031l3-18.9000015l0.2000122-1
			c0.2999878-1.9000015,1.9000244-3.1999969,3.7999878-3.1999969h2.4000244
			c15.4000244,0,27.4000244-6.1999969,30.9000244-24.2999954c1.5-7.5,0.7000122-13.8000031-3.2000122-18.3000031
			C653,73.9000015,651.5999756,72.8000031,649.9000244,71.9000015"/>
		<path opacity="0.696" fill="#FFFFFF" enable-background="new    " d="M649.9000244,71.9000015
			c1.2000122-7.5999985,0-12.7999992-4.0999756-17.5C641.3000488,49.2000008,633.1000366,47,622.6000366,47H592
			c-2.0999756,0-4,1.5999985-4.2999878,3.7000008L575,131.1000061c-0.2000122,1.3999939,0.7000122,2.8000031,2.2000122,3
			c0.0999756,0,0.2999878,0,0.4000244,0h18.7999878l4.7000122-30l-0.0999756,0.9000015
			c0.2999878-2.0999985,2.0999756-3.6999969,4.2999878-3.6999969h8.9000244
			c17.5999756,0,31.2999878-7.0999985,35.2999878-27.7999954C649.7000122,73.0999985,649.7999878,72.5,649.9000244,71.9000015"/>
		<path fill="#FFFFFF" d="M606.2000122,72C606.5,70.0999985,608.1000366,68.8000031,610,68.8000031h23.9000244
			c2.7999878,0,5.5,0.1999969,7.9000244,0.5999985c0.7000122,0.0999985,1.4000244,0.1999969,2,0.4000015
			c0.9000244,0.1999969,1.9000244,0.5,2.7999878,0.8000031c1.0999756,0.4000015,2.2000122,0.8000031,3.2999878,1.4000015
			c1.2000122-7.5999985,0-12.7999992-4.0999756-17.5c-4.5-5.2000008-12.7000122-7.4000015-23.2000122-7.4000015H592
			c-2.0999756,0-4,1.5999985-4.2999878,3.7000008L575,131.1000061c-0.2000122,1.3999939,0.7000122,2.8000031,2.2000122,3
			c0.0999756,0,0.2999878,0,0.4000244,0h18.7999878l4.7000122-30L606.2000122,72L606.2000122,72z"/>
	</g>
</g>
</svg>
