<?xml version="1.0" encoding="utf-8"?>
<!-- Generator: Adobe Illustrator 27.1.1, SVG Export Plug-In . SVG Version: 6.00 Build 0)  -->
<svg version="1.1" id="Layer_1" xmlns="http://www.w3.org/2000/svg" xmlns:xlink="http://www.w3.org/1999/xlink" x="0px" y="0px"
	 viewBox="0 0 1050 200.3816833" style="enable-background:new 0 0 1050 200.3816833;" xml:space="preserve">
<style type="text/css">
	.st0{fill:#424242;}
	.st1{fill:#FFFFFF;}
	.st2{fill:#575756;}
</style>
<g>
	<path class="st0" d="M1015.1170654,200.3816833H34.8829117C15.6176109,200.3816833,0,184.7640686,0,165.498764V34.8829117
		C0,15.6176109,15.6176109,0,34.8829117,0h980.2341309C1034.3824463,0,1050,15.6176109,1050,34.8829117V165.498764
		C1050,184.7640686,1034.3824463,200.3816833,1015.1170654,200.3816833z"/>
	<g id="donate">
		<g>
			<path class="st1" d="M73.299202,107.6550522c0-13.125,6.8129807-21.4408417,17.2328186-21.4408417
				c5.9112625,0,10.6202316,3.1059189,12.8244324,7.7146912h0.2003784V76.2953262
				c0-3.3062973,2.0038147-5.1097336,4.809166-5.1097336c2.8053436,0,4.9093475,1.8034439,4.9093475,5.1097336v47.9914169
				c0,3.1059113-2.0038147,4.9093475-4.8091583,4.9093475c-2.8053513,0-4.9093552-1.7032394-4.9093552-4.9093475v-3.2061157
				h-0.2003784c-2.0038147,4.809166-6.4122162,8.015274-12.9246216,8.015274
				C80.0119858,129.0959015,73.299202,120.880249,73.299202,107.6550522z M103.5568314,107.6550522
				c0-8.1154556-4.007637-13.4255753-10.2194672-13.4255753c-6.3120193,0-10.2194595,5.2099228-10.2194595,13.4255753
				s3.9074478,13.4255753,10.2194595,13.4255753C99.5491943,121.0806274,103.5568314,115.8707047,103.5568314,107.6550522z"/>
			<path class="st1" d="M205.7514801,128.7953186c-3.3062897,0-5.2099152-2.0038147-5.2099152-5.7108765v-19.737587
				c0-5.4103088-2.7051544-8.5162201-7.5143127-8.5162201c-5.4102936,0-8.7165985,3.9074402-8.7165985,10.4198456v17.8339615
				c0,3.6068802-1.9036255,5.7108765-5.2099152,5.7108765c-3.3063049,0-5.2099304-2.0038147-5.2099304-5.7108765V92.0252838
				c0-3.4064865,2.0038147-5.510498,5.1097412-5.510498s4.9093475,1.8034439,5.0095367,5.2099228v2.5047684h0.5009613
				c1.6030579-4.9093475,6.312027-8.0152664,12.3234711-8.0152664c8.816803,0,13.8263397,5.2099228,13.8263397,14.3272934
				v22.5429382C210.8612213,126.7915039,209.057785,128.7953186,205.7514801,128.7953186z"/>
			<path class="st1" d="M232.302063,128.995697c-8.1154633,0-13.6259613-5.1097336-13.6259613-12.6240463
				c0-7.7146912,5.7108765-12.4236603,15.1288147-12.4236603h9.8187103v-3.4064941
				c0-4.2080078-2.6049652-6.4122162-7.3139343-6.4122162c-3.1059265,0-5.4102936,1.2022934-7.7146912,3.2061081
				c-1.2022858,0.9017181-2.3043976,1.4026718-3.9074402,1.4026718c-2.3043823,0-3.7070618-1.502861-3.7070618-3.6068649
				c0-2.4045868,1.7032471-4.9093552,5.3101196-6.7127838c2.6049805-1.4026794,6.1116486-2.1040115,10.6202393-2.1040115
				c10.9207916,0,17.0324402,5.2099228,17.0324402,14.3272934v22.7433243c0,3.5066833-1.8034363,5.5105057-5.0095367,5.5105057
				c-2.7051544,0-4.5085907-1.5028687-4.8091583-4.2080154v-1.4026794h-0.5009613
				C241.4194336,126.8917007,237.3115997,128.995697,232.302063,128.995697z M235.7085419,121.5815811
				c4.5085907,0,7.9150696-3.005722,7.9150696-7.0133591v-4.3082047h-8.015274
				c-4.2080078,0-6.7127686,2.0038147-6.7127686,5.4103012C228.8955841,119.177002,231.7009125,121.5815811,235.7085419,121.5815811
				z"/>
			<path class="st1" d="M266.667511,95.3315887h-2.1040344c-2.8053284,0-4.4083862-1.5028687-4.4083862-4.007637
				s1.6030579-4.007637,4.4083862-4.007637h2.3043823v-5.4103012c0-3.6068726,1.8034363-5.510498,5.009552-5.510498
				s5.009552,2.0038147,5.009552,5.510498v5.4103012h4.1078186c2.8053284,0,4.4083862,1.5028687,4.4083862,4.007637
				s-1.6030579,4.007637-4.4083862,4.007637h-4.0076294v20.9398804c0,3.8072586,1.0018921,5.0095444,4.1078186,5.0095444
				c1.1021118,0,1.8034363-0.2003784,2.7051697-0.2003784c1.8034363,0,3.0057373,1.2022858,3.0057373,3.1059189
				c0,1.502861-0.701355,2.8053436-2.1040344,3.7070541c-1.4026489,0.9017105-3.6068726,1.4026718-6.4122009,1.4026718
				c-8.2156677,0-11.7223206-3.4064865-11.7223206-11.9227142V95.3315887H266.667511z"/>
			<path class="st1" d="M291.71521,105.0500946c0-11.3215714,7.5143127-19.0362625,18.635498-19.0362625
				c10.52005,0,18.0343628,7.5143127,18.0343628,17.7337799c0,4.6087723-1.3024597,6.2118301-5.2099304,6.2118301h-21.0400696
				v1.8034363c0,5.8110733,3.7070618,9.5181274,9.8186646,9.5181274c3.2061157,0,5.510498-0.8015289,7.3139343-2.30439
				c2.0038147-1.502861,2.7051697-2.1040039,4.308197-2.1040039c2.1040039,0,3.6068726,1.502861,3.6068726,3.807251
				c0,1.8034363-1.1021118,3.6068726-3.1059265,5.009552c-2.7051697,2.30439-7.5143127,3.7070541-12.8244019,3.7070541
				c-12.1231079,0-19.6374207-7.1135483-19.6374207-18.9360657v-5.4103088H291.71521z M318.5663757,103.4470444
				L318.5663757,103.4470444c0-5.7108765-3.1059265-9.4179459-8.0152588-9.4179459
				c-5.1097412,0-8.3158264,3.8072586-8.3158264,9.3177567v0.1001892H318.5663757z"/>
			<path class="st1" d="M360.0453796,94.1292877c-0.3005676-1.2022858-0.4007568-1.9036255-0.4007568-2.5047684
				c0-2.9055328,2.1040039-5.0095444,5.2099304-5.0095444c2.7051697,0,4.508606,1.8034439,5.009552,5.1097336l5.2099304,25.9494324
				h0.500946l6.211853-24.5467606c1.202301-4.8091583,2.9055176-6.6125946,6.3120117-6.6125946
				s5.2099304,1.8034439,6.4122009,6.6125946l6.3120117,24.5467606h0.500946l5.4103088-25.9494324
				c0.6011658-3.2061005,2.4045715-5.1097336,5.009552-5.1097336c3.1059265,0,5.0095215,2.0038223,5.0095215,4.7089691
				c0,0.6011429-0.2003784,1.502861-0.500946,2.7051468l-7.2137451,26.5505753
				c-1.7032471,6.2118378-3.7070618,8.2156525-7.3139343,8.2156525c-3.9074097,0-5.9112549-2.0038147-7.5143127-8.2156448
				l-6.0114441-21.8416061h-0.4007568l-5.8110352,21.8416061c-1.6030884,6.312027-3.4064941,8.2156448-7.3139343,8.2156448
				c-3.807251,0-5.9112549-2.1040115-7.5143127-8.2156448L360.0453796,94.1292877z"/>
			<path class="st1" d="M427.5740051,70.9852066c3.4064636,0,5.9112549,2.3043976,5.9112549,5.4103088
				s-2.5047913,5.4103088-5.9112549,5.4103088c-3.3063049,0-5.8110657-2.3043976-5.8110657-5.4103088
				S424.2677002,70.9852066,427.5740051,70.9852066z M427.5740051,128.7953186
				c-3.2061157,0-5.1097412-2.0038147-5.1097412-5.7108765V92.2256622c0-3.807251,2.0038147-5.7108765,5.2099304-5.7108765
				s5.1097412,2.0038223,5.1097412,5.7108765v30.9589691C432.7839355,126.8917007,430.7801208,128.7953186,427.5740051,128.7953186z
				"/>
			<path class="st1" d="M444.7066345,95.3315887h-2.1040039c-2.8053284,0-4.4083862-1.5028687-4.4083862-4.007637
				s1.6030579-4.007637,4.4083862-4.007637h2.3043823v-5.4103012c0-3.6068726,1.8034058-5.510498,5.0095215-5.510498
				s5.009552,2.0038147,5.009552,5.510498v5.4103012h4.1078186c2.8053284,0,4.4084167,1.5028687,4.4084167,4.007637
				s-1.6030884,4.007637-4.4084167,4.007637h-4.0076294v20.9398804c0,3.8072586,1.0019226,5.0095444,4.1078491,5.0095444
				c1.1020813,0,1.8034058-0.2003784,2.7051392-0.2003784c1.8034363,0,3.0057373,1.2022858,3.0057373,3.1059189
				c0,1.502861-0.701355,2.8053436-2.1040039,3.7070541c-1.4026794,0.9017105-3.6068726,1.4026718-6.4122009,1.4026718
				c-8.2156677,0-11.7223511-3.4064865-11.7223511-11.9227142V95.3315887H444.7066345z"/>
			<path class="st1" d="M501.9156189,128.7953186c-3.3062744,0-5.2099304-2.0038147-5.2099304-5.7108765v-19.6373978
				c0-5.4103088-2.8053284-8.5162201-7.6145325-8.5162201c-5.3100891,0-8.8167725,4.0076294-8.8167725,10.4198456v17.8339691
				c0,3.6068802-1.9036255,5.7108841-5.2099304,5.7108841s-5.1097412-2.0038223-5.1097412-5.7108841V77.5978012
				c0-3.6068649,1.8034363-5.7108765,5.2099304-5.7108765c3.3063049,0,5.1097412,2.1040115,5.1097412,5.7108765v16.6316757h0.500946
				c1.4026794-4.7089615,6.5124207-8.0152664,12.4236755-8.0152664c8.6164246,0,13.8263245,5.4103088,13.8263245,14.4274826
				v22.442749C507.1255188,126.7915039,505.2218933,128.7953186,501.9156189,128.7953186z"/>
		</g>
		<path id="heart_2_" class="st1" d="M154.4537811,86.2142105c-4.3082123,0-8.5162201,2.1040115-10.8206177,6.7127838
			c-2.3043823-4.6087723-6.5124054-6.7127838-10.8206177-6.7127838c-6.7127762,0-12.7242279,4.7089691-12.7242279,13.125
			c0,14.2270966,19.4370117,21.4408417,23.5448456,29.9570694c4.1078339-8.5162277,23.5448456-15.7299652,23.5448456-29.9570694
			C167.178009,90.3220444,160.4652252,86.2142105,154.4537811,86.2142105z M150.3459473,96.2332993
			c3.005722,0,5.7108765,2.0038147,5.7108765,6.0114517c0,6.3120193-8.3158417,10.620224-12.8244324,15.2290039
			c-4.4083862-4.6087799-12.8244324-8.9169922-12.8244324-15.2290039c0-3.9074478,2.6049652-6.0114517,5.7108765-6.0114517
			c4.1078339,0,6.2118378,4.6087723,7.0133667,6.8129807C144.1341248,100.8420792,146.3383179,96.2332993,150.3459473,96.2332993z"
			/>
	</g>
	<g>
		<path class="st1" d="M578.2741089,149.0226135h2.8676758l-2.6867065,11.1811676
			c-0.442688,1.2259674-0.3625488,2.5799408,0.2216187,3.7451477c0.7431641,0.9064026,1.8988037,1.3690033,3.0621338,1.225769
			c1.3256836,0.0512238,2.6241455-0.3848267,3.6502075-1.225769c1.0471802-1.0076141,1.7539673-2.316803,2.0218506-3.7451477
			l2.7138672-11.1811829h2.8812256l-2.7138672,11.4480438c-0.4050293,2.1655121-1.5343018,4.128952-3.2023926,5.5679779
			c-1.7078857,1.3076782-3.8216553,1.9722443-5.97052,1.8770905c-2.4651489,0-4.1522217-0.5970612-5.0704346-1.8092499
			c-0.9182129-1.212204-1.0855713-3.1209412-0.5201416-5.5815277L578.2741089,149.0226135z"/>
		<path class="st1" d="M592.598877,167.4136505l4.5638428-19.0740356l8.6663208,11.2490234
			c0.2307129,0.3166199,0.4523315,0.6377563,0.6829834,0.9996033c0.2307129,0.3618469,0.4523315,0.7825165,0.7327881,1.2303009
			l3.0531006-12.7281036h2.7138672l-4.5819092,19.0604858l-8.8563232-11.4570923l-0.6784668-0.9588928
			c-0.2240601-0.3328857-0.4077759-0.6912079-0.5473022-1.0674591l-3.0621338,12.8004608h-2.6867676V167.4136505z"/>
		<path class="st1" d="M612.7630005,167.4136505l4.3829346-18.3910522h2.921936l-4.3422241,18.3910522H612.7630005z"/>
		<path class="st1" d="M619.8326416,167.4136505l4.4281616-18.3910522h9.9960938l-0.6422729,2.5193939h-7.0696411
			l-1.0674438,4.5638275h7.0741577l-0.6332397,2.6053314h-7.1013184l-2.062561,8.6165619h-2.921936V167.4136505z"/>
		<path class="st1" d="M633.0944824,167.4136505l4.3738403-18.3910522h2.921936l-4.3738403,18.3910522H633.0944824z"/>
		<path class="st1" d="M640.1460571,167.4136505l4.3828735-18.3910522h9.9961548l-0.5971069,2.5193939h-7.0741577
			l-1.0674438,4.6090698h7.0741577l-0.6377563,2.6007996h-7.105835l-1.4202271,5.9298096h7.0741577l-0.6422729,2.7138824
			L640.1460571,167.4136505z"/>
		<path class="st1" d="M653.5119019,167.4136505l4.3828735-18.3910522h3.9260864
			c1.7888794-0.0728302,3.5801392,0.0637817,5.3372803,0.407074c0.9009399,0.2329254,1.7295532,0.6868896,2.4108276,1.3207703
			c0.8390503,0.8470154,1.3965454,1.9320679,1.5966797,3.1073914c0.2119141,1.4464111,0.1365967,2.9203949-0.2216187,4.337677
			c-0.383606,1.5376434-1.0177612,3.0016022-1.8770752,4.3331451c-0.8087769,1.239151-1.8671265,2.2959442-3.1074219,3.1028595
			c-0.9156494,0.6234741-1.9383545,1.0727234-3.0169067,1.3252716c-1.5570679,0.3214417-3.1467896,0.4565735-4.7357178,0.4025726
			h-4.6950073V167.4136505z M657.0761108,164.6726379h2.4650879c1.0383911,0.0257874,2.076355-0.0667572,3.093811-0.2759094
			c0.7024536-0.1798248,1.3662109-0.4863892,1.9585571-0.9046326c0.8353882-0.595108,1.5378418-1.3575897,2.0625-2.2389526
			c0.5814209-0.9573975,0.9959106-2.0066071,1.225769-3.1028595c0.2721558-0.9934387,0.3519897-2.0297241,0.2352295-3.0531158
			c-0.1084595-0.828476-0.4575806-1.6069489-1.0041504-2.2389526c-0.430542-0.4557343-0.9885864-0.7710114-1.6011963-0.9046173
			c-1.0515747-0.2160797-2.1247559-0.3086853-3.1978149-0.2759094h-2.1349487L657.0761108,164.6726379z"/>
		<path class="st1" d="M684.3098755,159.136322l-1.9630737,8.26828h-2.7138672l4.3739014-18.391037h4.4281006
			c0.9477539-0.0266876,1.8955688,0.0491333,2.8269653,0.2261505c0.5353394,0.0987854,1.029541,0.3537292,1.4202881,0.7327423
			c0.4820557,0.4617615,0.7997437,1.0685883,0.9046021,1.7278442c0.1188354,0.79216,0.085022,1.5997162-0.0994873,2.3791656
			c-0.2076416,0.8613892-0.5692139,1.6781158-1.0674438,2.4108276c-0.4577637,0.6899109-1.0481567,1.2818756-1.7368774,1.7414093
			c-0.5516968,0.3346252-1.1533203,0.578949-1.7821045,0.7236938c-0.9637451,0.1755524-1.9425659,0.2543488-2.9219971,0.235199
			h-1.6870728L684.3098755,159.136322z M685.1104736,156.6938324h0.7282104
			c1.1542969,0.0816193,2.3115845-0.1089478,3.3787842-0.5563507c0.6786499-0.4295502,1.1436768-1.1263123,1.2800293-1.9178009
			c0.2808838-0.697464,0.1366577-1.4942169-0.3709106-2.0489655c-0.9181519-0.5013733-1.9677734-0.7097321-3.0078735-0.5970612
			h-0.7282104L685.1104736,156.6938324z"/>
		<path class="st1" d="M703.3839111,167.4136505l-0.9046021-4.7447662h-7.128479l-3.2023926,4.7447662h-3.0576172
			l13.24823-19.0740356l4.0708008,19.0740356H703.3839111z M697.0877075,160.1766357h4.9754639l-0.8232422-4.2064972
			c-0.0505371-0.299057-0.0792847-0.6013947-0.0859375-0.9046326c-0.0452271-0.3751373-0.0634155-0.7530365-0.0542603-1.1307831
			c-0.1681519,0.3899536-0.3631592,0.7677765-0.5834961,1.1307831c-0.1623535,0.3339233-0.3482666,0.6558838-0.5563354,0.9634399
			L697.0877075,160.1766357z"/>
		<path class="st1" d="M710.6706543,167.4136505l2.0037842-8.394928l-3.6456909-9.950882h3.0576782l2.2841797,6.2509613
			c0.048584,0.215744,0.1090088,0.4286346,0.1809082,0.6377716c0.0859375,0.2758942,0.1401978,0.5427704,0.2261353,0.8232117
			l0.5427856-0.8232117c0.194519-0.2759094,0.3754272-0.5020752,0.5563965-0.7237091l5.3327637-6.1650238h2.921936
			l-8.5351562,9.8966064l-1.9901733,8.394928h-2.921936L710.6706543,167.4136505z"/>
		<path class="st1" d="M738.4064941,158.3266754c0.0263672-0.3971558,0.0731812-0.7926941,0.1401978-1.1850586
			c0.0087891-0.4432373,0.0541382-0.8849945,0.1356812-1.320755c-0.1809082,0.4116058-0.3618164,0.8186951-0.5970459,1.2800446
			c-0.2418213,0.445755-0.5154419,0.8735199-0.8186646,1.2800446l-7.0334473,9.8016357l-2.2615967-9.9870605
			c-0.0987549-0.3937531-0.1773071-0.7923126-0.2351685-1.1941223c-0.0490112-0.3750916-0.0777588-0.7525787-0.0859375-1.1307831
			c-0.0949707,0.3618469-0.2352295,0.7689362-0.3709106,1.2303009c-0.1503296,0.4528656-0.333252,0.8942719-0.5473022,1.320755
			l-4.1069946,9.0462646h-2.6867676l8.8518066-19.1192627l2.5193481,11.5973053
			c0.0580444,0.299118,0.1003418,0.6010742,0.1266479,0.9046326c0.0474243,0.5378265,0.1259766,1.0724487,0.2352295,1.601181
			c0.321106-0.5427704,0.7236938-1.1850586,1.2800293-2.0037384c0.1126709-0.1609192,0.2153931-0.328598,0.3075562-0.5020599
			l7.8973999-11.5973053l-0.2804565,19.2006989h-2.6867065L738.4064941,158.3266754z"/>
		<path class="st1" d="M743.2598267,167.4136505l4.3829346-18.3910522h9.9508667l-0.5654297,2.5510559h-7.0922241
			l-1.0493774,4.6090698h7.0560913l-0.6377563,2.6007996h-7.0742188l-1.4202271,5.9298096h7.0741577l-0.6377563,2.7138824
			L743.2598267,167.4136505z"/>
		<path class="st1" d="M756.5397339,167.4136505l4.6090698-19.0740356l8.675354,11.2490234
			c0.2216187,0.3166199,0.4523315,0.6377563,0.6829834,0.9996033c0.2307129,0.3618469,0.4523315,0.7825165,0.7327881,1.2303009
			l3.0531006-12.7281036h2.6867065l-4.572876,19.0604858l-8.8336792-11.4570923l-0.664856-0.9588928
			c-0.2295532-0.3310394-0.4165039-0.689682-0.5563965-1.0674591l-3.0621338,12.8004608h-2.7410278L756.5397339,167.4136505z"/>
		<path class="st1" d="M786.2929077,151.5419922l-3.7858887,15.8309479h-2.921936l3.7858887-15.8309479h-4.7493286
			l0.5970459-2.5510559h12.4069824l-0.5834961,2.5510559H786.2929077z"/>
		<path class="st1" d="M789.3550415,163.7137299l2.5917358-1.0674438c-0.0170898,0.7047882,0.265686,1.383728,0.7780151,1.868042
			c0.6125488,0.4609375,1.3699341,0.6871796,2.1348877,0.6377716c0.8068848,0.0240479,1.5963745-0.2369995,2.2299194-0.7372742
			c0.6352539-0.484436,1.0751343-1.1811829,1.2393188-1.9630432c0.2759399-1.0629272-0.366394-2.0444489-1.9223022-2.8676605
			c-0.1582031-0.1077271-0.326355-0.200119-0.5020752-0.2758942c-1.2982178-0.6150818-2.4257202-1.5391693-3.2838135-2.6912689
			c-0.4613647-0.9034271-0.5569458-1.9498901-0.2668457-2.921936c0.3381348-1.4543915,1.1751099-2.744339,2.3656006-3.6456451
			c1.2226562-0.9408722,2.7272339-1.44133,4.2698364-1.4202728c1.1083984-0.0519104,2.2080688,0.2183075,3.1661987,0.7779846
			c0.7542114,0.5100098,1.2391968,1.3321075,1.3207397,2.2389526l-2.5736694,1.1850433
			c-0.1593628-0.5006714-0.4592285-0.9449768-0.8638916-1.2800446c-0.3970947-0.2775116-0.8727417-0.4201965-1.3569946-0.407074
			c-0.7215576-0.0205994-1.4285278,0.2060242-2.0037231,0.6422882c-0.5513306,0.4118042-0.9314575,1.0125275-1.0674438,1.6871338
			c-0.2804565,1.0629425,0.5020752,2.1303864,2.2615356,3.1028595c0.1035156,0.0663605,0.2107544,0.12677,0.321167,0.1809235
			c1.2213745,0.5313873,2.2763062,1.3831482,3.0531006,2.4651031c0.4743042,0.9301605,0.5730591,2.0069733,0.2759399,3.0078888
			c-0.3537598,1.6447601-1.274353,3.1128845-2.6008301,4.1477051c-1.3456421,1.0321655-2.9992676,1.5817871-4.6950073,1.5604858
			c-1.2640381,0.0862122-2.5158691-0.2935181-3.5189819-1.0674438
			C789.746582,166.1189117,789.2364502,164.9281158,789.3550415,163.7137299z"/>
		<path class="st1" d="M810.8534546,167.4136505l4.3739014-18.3910522h2.921936l-4.3829346,18.3910522H810.8534546z"/>
		<path class="st1" d="M817.9547729,167.4136505l4.5683594-19.0740356l8.6844482,11.1811829
			c0.2216187,0.3211365,0.4522705,0.6377563,0.6829834,1.0041351c0.2306519,0.3663635,0.4523315,0.7779694,0.7236938,1.225769
			l3.0621338-12.7280884h2.6867676l-4.5548096,19.0740356l-8.8427124-11.4570923l-0.6829834-0.9588928
			c-0.2295532-0.3310394-0.4165039-0.689682-0.5563354-1.0674591l-3.048584,12.8004608h-2.7138672L817.9547729,167.4136505z"/>
		<path class="st1" d="M847.6672363,151.5419922l-3.7904053,15.8309479h-2.921936l3.7858887-15.8309479h-4.744812
			l0.5971069-2.5510559H853l-0.5880127,2.5510559H847.6672363z"/>
		<path class="st1" d="M850.810791,167.4136505l4.3874512-18.3910522h10.0368652l-0.5971069,2.5510559h-7.0741577
			l-1.0674438,4.6090698h7.0741577l-0.6287231,2.6007996h-7.0741577l-1.4157715,5.9298096h7.0606079l-0.6377563,2.7138824
			L850.810791,167.4136505z"/>
		<path class="st1" d="M868.8400269,159.136322l-1.9630737,8.2140045h-2.7410278l4.4146118-18.3774719h4.0708008
			c0.9099121-0.0226746,1.8197021,0.0516052,2.7138672,0.2216339c0.5683594,0.1034698,1.0928345,0.3743744,1.5062256,0.7779694
			c0.4609375,0.4718933,0.7629395,1.0759583,0.8638916,1.7278442c0.1270752,0.7744293,0.0979004,1.566452-0.0859375,2.3294067
			c-0.2636719,1.3171692-0.9177246,2.5244598-1.8771362,3.4647217c-0.9578857,0.8458252-2.1538086,1.3750305-3.4240112,1.5152435
			l4.1613159,8.3406525h-3.2883301l-3.9893799-8.2140045H868.8400269z M869.617981,156.8747559h0.5473022
			c1.0945435,0.0886993,2.1938477-0.0978851,3.197876-0.5427704c0.6593628-0.4596252,1.1022339-1.1688232,1.225769-1.9630432
			c0.2351685-1.0041351,0.1401978-1.7278442-0.3166504-2.1349182c-0.8595581-0.5267334-1.8704224-0.7511902-2.8721924-0.6377563
			h-0.5427856L869.617981,156.8747559z"/>
		<path class="st1" d="M878.1531372,167.4136505l4.3738403-18.3910522h9.9960938l-0.5020752,2.5193939h-7.0741577
			l-1.0629272,4.5638275h7.0697021l-0.6377563,2.6053314h-7.1465454l-2.062561,8.6165619h-2.9536133V167.4136505z"/>
		<path class="st1" d="M902.2839966,167.4136505l-0.9046021-4.7447662h-7.128479l-3.1978149,4.7447662h-3.0621948
			l13.2391968-19.0740356l4.1070557,19.1283264L902.2839966,167.4136505z M895.9516602,160.1766357h4.9754028l-0.8276978-4.2064972
			c-0.0615845-0.2977448-0.0948486-0.6006317-0.0994873-0.9046326c-0.022644-0.3765869-0.022644-0.7541962,0-1.1307831
			c-0.1664429,0.3932648-0.3662109,0.7715607-0.5971069,1.1307831c-0.1577148,0.3336792-0.3391113,0.6556396-0.5427856,0.9634399
			L895.9516602,160.1766357z"/>
		<path class="st1" d="M924.3252563,153.4914551c-0.6160889-0.7046204-1.3914185-1.2520142-2.2615967-1.5966644
			c-0.8774414-0.3792114-1.8260498-0.5658264-2.7817383-0.547287c-1.9160767-0.0075073-3.7719116,0.6693726-5.2332153,1.9087524
			c-1.5422974,1.2875977-2.6143799,3.0499878-3.048584,5.0116272c-0.519165,1.6575317-0.2861328,3.4593353,0.6377563,4.9302063
			c0.9243164,1.3117371,2.4707642,2.0402679,4.0708008,1.9178009c1.0842285,0.0093536,2.1598511-0.1934662,3.1661987-0.5970612
			c1.1429443-0.4235077,2.2208862-1.0050964,3.2023926-1.727829l-0.859436,3.3878479
			c-0.8868408,0.5730591-1.8572998,1.0048828-2.876709,1.2800293c-1.0078125,0.2759857-2.0489502,0.4114532-3.093811,0.4025726
			c-1.2539062,0.0284576-2.5-0.2041321-3.6592407-0.6829987c-1.0311279-0.4397278-1.9259644-1.1471558-2.5917358-2.0489807
			c-0.6950073-0.9024963-1.1383057-1.973175-1.2846069-3.1028595c-0.1899414-1.2789459-0.112915-2.583374,0.2261963-3.8310852
			c0.3188477-1.3424225,0.8600464-2.6220398,1.6011353-3.7858582c0.7351685-1.1916504,1.6771851-2.2424164,2.7817383-3.1028595
			c1.0548706-0.8944702,2.262207-1.5916138,3.56427-2.0580292c1.2401733-0.4543762,2.5509644-0.6855927,3.8717651-0.6829987
			c0.9925537-0.0155792,1.9805908,0.1373596,2.921936,0.4523163c0.8858643,0.3320007,1.703125,0.8241882,2.4108887,1.4519196
			L924.3252563,153.4914551z"/>
		<path class="st1" d="M924.6011353,167.4136505l4.3738403-18.3910522h9.9871216l-0.6016235,2.5510559h-7.0696411
			l-1.0674438,4.6090698h7.0742188l-0.6422729,2.6007996h-7.083313l-1.4202271,5.9298096h7.0877686l-0.6377563,2.7138824
			L924.6011353,167.4136505z"/>
		<path class="st1" d="M871.4860229,133.0107269h-20.0012817l27.7991333-100.5220337h20.032959L871.4860229,133.0107269z"/>
		<path class="st1" d="M861.0873413,35.6548805c-1.3659668-1.9328804-3.5009155-2.8993225-6.4047241-2.8993225H744.5805664
			l-5.4277344,19.7117996h100.1149292l-5.8438721,21.037075h-100.105896l-16.6089478,59.999321h20.032959l11.1268921-40.2558594
			h90.0374146c2.8939819-0.0198898,5.6938477-1.0303421,7.9335327-2.8631439
			c2.3709106-1.767601,4.0888062-4.2713394,4.8850098-7.1194l11.1268921-40.2558594
			C862.729248,39.9654236,862.4487915,37.5455513,861.0873413,35.6548805z"/>
		<path class="st1" d="M705.012207,126.7054901c-1.1098022,3.9762573-4.7235718,6.7331696-8.8517456,6.7530365H592.9200439
			c-2.4505615,0.1809845-4.8242188-0.9001312-6.2962036-2.8676605c-1.4161377-2.0940399-1.7408447-4.7406158-0.8729858-7.1148834
			l25.1802979-90.679718h20.0374756l-22.4980469,81.077095h80.1271973l22.4980469-81.077095h20.032959L705.012207,126.7054901z"/>
		<polygon class="st2" points="933.9052124,32.6696167 959.2302246,83.0437088 905.9749146,133.4178162 		"/>
		<polygon class="st1" points="916.1112671,32.6696167 941.4362183,83.0437088 888.1401978,133.4178162 		"/>
	</g>
</g>
</svg>
