<?xml version="1.0" encoding="utf-8"?>
<!-- Generator: Adobe Illustrator 27.1.1, SVG Export Plug-In . SVG Version: 6.00 Build 0)  -->
<svg version="1.1" id="Layer_1" xmlns="http://www.w3.org/2000/svg" xmlns:xlink="http://www.w3.org/1999/xlink" x="0px" y="0px"
	 viewBox="0 0 1050 200.3816833" enable-background="new 0 0 1050 200.3816833" xml:space="preserve">
<g>
	<path fill="#FFC100" d="M1015.1170654,200.3816833H34.8829117C15.6176109,200.3816833,0,184.7640686,0,165.498764V34.8829117
		C0,15.6176109,15.6176109,0,34.8829117,0h980.2341309C1034.3824463,0,1050,15.6176109,1050,34.8829117V165.498764
		C1050,184.7640686,1034.3824463,200.3816833,1015.1170654,200.3816833z"/>
	<g id="UPIcolor">
		<path fill="#FFFFFF" d="M580.7067261,147.8671722h2.8313599l-2.652771,10.9490662
			c-0.4370728,1.200531-0.3579712,2.5263977,0.2188721,3.6674194c0.7337646,0.8875885,1.8747559,1.3405762,3.0233765,1.2003174
			c1.3088379,0.0501556,2.5909424-0.3768463,3.6039429-1.2003174c1.0339355-0.9867096,1.7318115-2.2687225,1.9962769-3.6674194
			l2.6795044-10.9490814h2.8447876l-2.6795654,11.2104034c-0.3998413,2.1205597-1.5148315,4.0432587-3.1618042,5.4523926
			c-1.6862183,1.2805481-3.7732544,1.9313049-5.8949585,1.8381348c-2.4338989,0-4.0996704-0.5846558-5.0062256-1.771698
			c-0.9066162-1.187027-1.0718384-3.0561523-0.5136108-5.4656677L580.7067261,147.8671722z"/>
		<path fill="#FFFFFF" d="M594.8501587,165.8764496l4.5060425-18.6780853l8.5566406,11.0155029
			c0.2277222,0.3100586,0.4465942,0.624527,0.6743164,0.9788666c0.2277832,0.3543243,0.4465942,0.7662659,0.7235107,1.2047577
			l3.0144653-12.4638977h2.6795044l-4.5239258,18.6648254l-8.7442017-11.2192535l-0.6698608-0.9389954
			c-0.2212524-0.3259735-0.4026489-0.6768646-0.5404053-1.0453033l-3.0233765,12.5347443h-2.65271V165.8764496z"/>
		<path fill="#FFFFFF" d="M614.7590332,165.8764496l4.3273926-18.0092926h2.8849487l-4.2872314,18.0092926H614.7590332z"/>
		<path fill="#FFFFFF" d="M621.7391968,165.8764496l4.3720703-18.0092926h9.8695679l-0.6341553,2.4671021h-6.9801636
			l-1.0539551,4.469101h6.9846191l-0.6251831,2.551239h-7.0114136l-2.036438,8.4376984h-2.8849487V165.8764496z"/>
		<path fill="#FFFFFF" d="M634.8331299,165.8764496l4.3184814-18.0092926h2.8849487l-4.3184814,18.0092926H634.8331299z"/>
		<path fill="#FFFFFF" d="M641.7954102,165.8764496l4.3274536-18.0092926h9.8695679l-0.5894775,2.4671021h-6.9846802
			l-1.053894,4.5133972h6.9846191l-0.6296997,2.5467987h-7.0158691l-1.4022827,5.8067322h6.9846191l-0.6341553,2.657547
			L641.7954102,165.8764496z"/>
		<path fill="#FFFFFF" d="M654.9920654,165.8764496l4.3274536-18.0092926h3.8763428
			c1.7662964-0.0713043,3.5348511,0.0624695,5.2697754,0.3986359c0.8895264,0.2280884,1.7076416,0.6726227,2.3803101,1.2933502
			c0.8283691,0.8294373,1.3788452,1.8919678,1.576416,3.0428772c0.2092285,1.4163971,0.1348877,2.859787-0.218811,4.2476349
			c-0.3787231,1.505722-1.0048828,2.9393158-1.8533325,4.2432098c-0.7985229,1.2134247-1.8434448,2.2482758-3.0680542,3.0384521
			c-0.9040527,0.6105194-1.9138184,1.0504608-2.9787598,1.29776c-1.5372925,0.3147583-3.1069336,0.4470978-4.6757202,0.3942108
			h-4.6356201V165.8764496z M658.5111694,163.192337h2.4338989c1.0252686,0.0252533,2.0501099-0.0653687,3.0546875-0.2701874
			c0.6935425-0.1760864,1.348877-0.4762878,1.9337158-0.8858337c0.8248291-0.5827637,1.5183716-1.329422,2.036438-2.1924896
			c0.5740356-0.9375153,0.9832764-1.9649506,1.2102661-3.0384521c0.2686768-0.9728088,0.3474731-1.9875793,0.2322388-2.9897308
			c-0.1071167-0.8112946-0.4517822-1.5736084-0.9914551-2.1924744c-0.4251099-0.4462891-0.9760742-0.7550201-1.5809326-0.885849
			c-1.038269-0.2115936-2.0979004-0.3022766-3.1573486-0.2701874h-2.1079102L658.5111694,163.192337z"/>
		<path fill="#FFFFFF" d="M685.4002075,157.7709503l-1.9381714,8.0966492h-2.6795654l4.3185425-18.0092926h4.3720703
			c0.93573-0.026123,1.871521,0.0481262,2.7911987,0.2214661c0.5285645,0.0967407,1.0164185,0.3463898,1.4022827,0.7175293
			c0.4759521,0.452179,0.7896118,1.046402,0.8931274,1.6919708c0.1173096,0.7757111,0.0839844,1.5665131-0.0982056,2.3297882
			c-0.2050171,0.8435059-0.5620117,1.64328-1.0539551,2.3607788c-0.4519653,0.6755981-1.0349121,1.2552643-1.7149048,1.7052612
			c-0.5446777,0.3276825-1.1387329,0.566925-1.7595215,0.7086792c-0.9515381,0.1719055-1.9179688,0.2490692-2.8850098,0.2303162
			h-1.6657715L685.4002075,157.7709503z M686.1906738,155.3791656h0.7189941
			c1.1397095,0.0799103,2.2823486-0.1066895,3.3359985-0.5447998c0.6700439-0.420639,1.1292114-1.102951,1.263855-1.8779907
			c0.2773438-0.6829987,0.1349487-1.4632111-0.3662109-2.0064545c-0.9065552-0.4909668-1.9428711-0.6949921-2.9697876-0.5846558
			h-0.7189941L686.1906738,155.3791656z"/>
		<path fill="#FFFFFF" d="M704.2327881,165.8764496l-0.8931274-4.6462708h-7.038208l-3.1618652,4.6462708h-3.0189209
			l13.0805054-18.6780853l4.0192871,18.6780853H704.2327881z M698.0162964,158.7896729h4.9124756l-0.8128052-4.1191864
			c-0.0499268-0.2928467-0.0782471-0.588913-0.0848389-0.885849c-0.0446777-0.3673553-0.062561-0.7374115-0.0535889-1.1073151
			c-0.1660156,0.3818512-0.3585205,0.7518463-0.5761108,1.1073151c-0.1603394,0.3269806-0.3438721,0.6422577-0.5493164,0.9434204
			L698.0162964,158.7896729z"/>
		<path fill="#FFFFFF" d="M711.4273682,165.8764496l1.9783325-8.2206573l-3.5994873-9.744339h3.0189209l2.2553101,6.1212158
			c0.0479736,0.2112579,0.107605,0.4197388,0.1785889,0.624527c0.0848999,0.2701721,0.1384888,0.5315094,0.2233276,0.8061218
			l0.5358887-0.8061218c0.1920166-0.2701721,0.3706665-0.4916382,0.5493164-0.7086792l5.2652588-6.0370636h2.8849487
			l-8.427124,9.6911774l-1.9649658,8.2206726h-2.8849487L711.4273682,165.8764496z"/>
		<path fill="#FFFFFF" d="M738.8120728,156.9781189c0.026062-0.3889313,0.0722656-0.7762604,0.1384277-1.1604614
			c0.008667-0.4340515,0.0534668-0.8666382,0.1339722-1.2933502c-0.1785889,0.4030609-0.3572388,0.8016968-0.5894775,1.2534637
			c-0.2388306,0.4365082-0.5089722,0.8554077-0.8083496,1.253479l-6.944397,9.598175l-2.2329102-9.7797546
			c-0.0975952-0.3855743-0.1751099-0.7758636-0.2322388-1.1693268c-0.0484009-0.3673096-0.0767822-0.7369537-0.0848389-1.1072998
			c-0.093811,0.3543243-0.2322388,0.7529755-0.3662109,1.2047424c-0.1484985,0.4434662-0.3290405,0.8757172-0.5404053,1.2933502
			l-4.0549927,8.8584747h-2.65271l8.7396851-18.7223816l2.4874878,11.3565674
			c0.057312,0.292923,0.0990601,0.5885925,0.125061,0.885849c0.046814,0.5266571,0.1243286,1.0501862,0.2322388,1.5679626
			c0.3170776-0.5315247,0.7145386-1.1604614,1.2637939-1.9621582c0.1112671-0.1575775,0.2126465-0.3217621,0.3037109-0.4916382
			l7.7974243-11.3565674l-0.2769165,18.8021393h-2.65271L738.8120728,156.9781189z"/>
		<path fill="#FFFFFF" d="M743.6039429,165.8764496l4.3274536-18.0092926h9.8249512l-0.5582886,2.4981079h-7.0024414
			l-1.0361328,4.5133972h6.9667969l-0.6296997,2.546814h-6.9846191l-1.4022827,5.8067169h6.9846191l-0.6296997,2.657547
			L743.6039429,165.8764496z"/>
		<path fill="#FFFFFF" d="M756.7157593,165.8764496l4.5507202-18.6780853l8.5655518,11.0155029
			c0.2188721,0.3100586,0.4465942,0.624527,0.6743774,0.9788666c0.2277832,0.3543243,0.4465942,0.7662659,0.7234497,1.2047577
			l3.0144653-12.4638977h2.652771l-4.5150146,18.6648254l-8.7218628-11.2192535l-0.6564941-0.9389954
			c-0.2266235-0.324173-0.4111938-0.6753693-0.5493164-1.0453033l-3.0233765,12.5347443h-2.7062988L756.7157593,165.8764496z"/>
		<path fill="#FFFFFF" d="M786.0922852,150.334259l-3.737915,15.5023346h-2.8849487l3.737915-15.5023346h-4.6891479
			l0.5894775-2.4981079h12.2498779l-0.5760498,2.4981079H786.0922852z"/>
		<path fill="#FFFFFF" d="M789.1157227,162.2533417l2.5588989-1.0453033
			c-0.0168457,0.6901703,0.2623291,1.355011,0.7681274,1.8292847c0.6047974,0.451355,1.3526001,0.6729126,2.1079102,0.624527
			c0.7966309,0.0235443,1.5761719-0.2320709,2.2016602-0.7219696c0.6272583-0.4743805,1.0615845-1.156662,1.2236938-1.922287
			c0.2723999-1.0408783-0.3617554-2.0020142-1.8980103-2.808136c-0.156189-0.1054993-0.3222046-0.1959686-0.4957275-0.2701874
			c-1.2817383-0.6022949-2.3950195-1.5072021-3.2421875-2.6353912c-0.4555664-0.8846741-0.5499268-1.9094086-0.2634888-2.8612976
			c0.3338013-1.4241791,1.1602173-2.6873474,2.3356323-3.5699615c1.2071533-0.9213409,2.692688-1.4114075,4.2157593-1.3907776
			c1.0943604-0.0508423,2.1801758,0.2137604,3.1261597,0.7618256c0.7446899,0.4994202,1.2235107,1.3044586,1.3040161,2.1924744
			l-2.5410767,1.1604462c-0.1573486-0.4902802-0.4534302-0.925354-0.8530273-1.2534637
			c-0.3919678-0.271759-0.8616333-0.4114838-1.3397217-0.3986359c-0.7124634-0.0201721-1.4105225,0.2017517-1.9783936,0.6289673
			c-0.5443726,0.403244-0.9196777,0.9915009-1.0539551,1.6520996c-0.2768555,1.0408783,0.4957275,2.0861664,2.2329712,3.0384521
			c0.1021729,0.0649872,0.2080688,0.1241455,0.3170776,0.1771698c1.2058716,0.5203705,2.2474365,1.3544464,3.0144653,2.4139404
			c0.4682617,0.9108429,0.5657959,1.9653168,0.2723999,2.9454498c-0.3492432,1.6106262-1.2581787,3.0482788-2.5678711,4.061615
			c-1.3286133,1.0107269-2.9613037,1.5489502-4.6356201,1.5280914c-1.2479858,0.0844116-2.4840088-0.2874451-3.4744263-1.0453033
			C789.5022583,164.6085815,788.9986572,163.4425201,789.1157227,162.2533417z"/>
		<path fill="#FFFFFF" d="M810.34198,165.8764496l4.3185425-18.0092926h2.8849487l-4.3274536,18.0092926H810.34198z"/>
		<path fill="#FFFFFF" d="M817.3534546,165.8764496l4.510498-18.6780853l8.5744629,10.9490662
			c0.2188721,0.3144836,0.4465942,0.624527,0.6743774,0.9832916c0.2277832,0.3587799,0.4465942,0.7618408,0.7145386,1.2003326
			l3.0233765-12.4638824h2.652771l-4.4971924,18.6781006l-8.7307739-11.2192535l-0.6743164-0.9389954
			c-0.2266846-0.324173-0.4111938-0.6753693-0.5493164-1.0453033l-3.0100098,12.5347443h-2.6795044L817.3534546,165.8764496z"/>
		<path fill="#FFFFFF" d="M846.6897583,150.334259l-3.7423706,15.5023346h-2.8850098l3.7379761-15.5023346h-4.6847534
			l0.5895386-2.4981079h12.2498779l-0.5805664,2.4981079H846.6897583z"/>
		<path fill="#FFFFFF" d="M849.7935791,165.8764496l4.3318481-18.0092926h9.90979l-0.5894775,2.4981079h-6.9846191
			l-1.0539551,4.5133972h6.9846191l-0.6207275,2.546814h-6.9846802l-1.3978271,5.8067169h6.9712524l-0.6296997,2.657547
			L849.7935791,165.8764496z"/>
		<path fill="#FFFFFF" d="M867.5945435,157.7709503l-1.9382324,8.0435028h-2.7062988l4.3587036-17.9960022h4.0192871
			c0.8983765-0.0222168,1.7966309,0.0505371,2.6795044,0.2170258c0.5611572,0.1013184,1.0790405,0.3666077,1.4871216,0.7618256
			c0.4551392,0.4620972,0.7532959,1.0536194,0.8530273,1.6919708c0.1254272,0.7583618,0.0966187,1.5339355-0.0848999,2.2810669
			c-0.2603149,1.2898254-0.9061279,2.4720612-1.8533325,3.3927917c-0.9458008,0.8282623-2.1265259,1.3464966-3.3806763,1.4837952
			l4.1086426,8.1675262h-3.2467041l-3.9389038-8.0435028H867.5945435z M868.3626099,155.5563354h0.5404053
			c1.0806885,0.086853,2.1661377-0.095871,3.1574097-0.5315247c0.651001-0.4500732,1.0882568-1.1445465,1.2102051-1.922287
			c0.2322388-0.9832916,0.1384888-1.6919708-0.312561-2.0905914c-0.8486938-0.5157928-1.8468018-0.7355957-2.8358154-0.624527
			h-0.5359497L868.3626099,155.5563354z"/>
		<path fill="#FFFFFF" d="M876.7897339,165.8764496l4.3184814-18.0092926h9.8695679l-0.4956665,2.4671021h-6.9846191
			l-1.0494995,4.469101h6.9802246l-0.6296997,2.551239h-7.0560913l-2.036438,8.4376984h-2.9161987L876.7897339,165.8764496z"/>
		<path fill="#FFFFFF" d="M900.6151733,165.8764496l-0.8931274-4.6462708h-7.038269l-3.1573486,4.6462708h-3.0233765
			l13.0715942-18.6780853l4.0550537,18.7312469L900.6151733,165.8764496z M894.3629761,158.7896729h4.9124756l-0.8172607-4.1191864
			c-0.060791-0.2915649-0.093689-0.5881653-0.0982666-0.885849c-0.0222778-0.3687744-0.0222778-0.7385406,0-1.1073151
			c-0.1643066,0.3851013-0.3615112,0.7555389-0.5894775,1.1073151c-0.1557007,0.3267365-0.3348389,0.6420288-0.5358887,0.9434204
			L894.3629761,158.7896729z"/>
		<path fill="#FFFFFF" d="M922.3773804,152.2432556c-0.6082153-0.6900024-1.3737793-1.2260284-2.2329102-1.5635223
			c-0.866333-0.3713379-1.8029175-0.5540924-2.746521-0.5359344c-1.8918457-0.0073395-3.7241821,0.6554871-5.1669922,1.8691406
			c-1.5227661,1.2608643-2.5812988,2.9866791-3.0100098,4.9075928c-0.5125732,1.6231232-0.2824707,3.3875275,0.6296997,4.8278656
			c0.9126587,1.2845001,2.4395142,1.9979095,4.0192871,1.8779907c1.0704956,0.0091705,2.1324463-0.1894531,3.1260986-0.5846558
			c1.128479-0.4147186,2.1928101-0.9842377,3.1618652-1.6919708l-0.8485718,3.3175201
			c-0.8755493,0.5611725-1.8338013,0.984024-2.840271,1.2534637c-0.9950562,0.2702637-2.0230103,0.4029083-3.0546875,0.3942108
			c-1.2380371,0.0278778-2.4683228-0.1998901-3.612854-0.6688232c-1.0181274-0.4305878-1.9016113-1.1233368-2.55896-2.0064392
			c-0.6862183-0.8837738-1.1239014-1.9322205-1.2683105-3.0384521c-0.187561-1.2524109-0.1115112-2.5297546,0.2232666-3.7515717
			c0.3148193-1.3145447,0.8491821-2.5675964,1.5809326-3.7072754c0.7258301-1.1669006,1.6559448-2.1958618,2.746521-3.0384369
			c1.0415039-0.8759003,2.2335815-1.5585785,3.519104-2.0153046c1.2244873-0.4449463,2.5186768-0.6713715,3.8228149-0.6688232
			c0.9799805-0.0152588,1.9554443,0.134491,2.8849487,0.4429321c0.8746338,0.3251038,1.6815186,0.8070679,2.3803101,1.4217834
			L922.3773804,152.2432556z"/>
		<path fill="#FFFFFF" d="M922.6498413,165.8764496l4.3184814-18.0092926h9.8606567l-0.5939941,2.4981079h-6.9801025
			l-1.0539551,4.5133972h6.9846191l-0.6341553,2.546814h-6.9935913l-1.4022827,5.8067169h6.9980469l-0.6296997,2.657547
			L922.6498413,165.8764496z"/>
		<path fill="#FFFFFF" d="M870.2070312,132.1876678h-19.7480469l27.4472046-98.4354172h19.7793579L870.2070312,132.1876678z"/>
		<path fill="#FFFFFF" d="M859.9400024,36.8527184c-1.3486938-1.8927612-3.456604-2.8391418-6.3236694-2.8391418H744.90802
			l-5.3590698,19.3026237h98.8476562l-5.7698975,20.6003952h-98.8387451l-16.3986816,58.7538605h19.7793579l10.9860229-39.4202347
			h88.8977051c2.8573608-0.0194778,5.6218262-1.0089493,7.8331909-2.8037109
			c2.3408203-1.7309113,4.0369873-4.1826782,4.8231201-6.9716187l10.9860229-39.4202271
			C861.5610962,41.0737839,861.2842407,38.7041397,859.9400024,36.8527184z"/>
		<path fill="#FFFFFF" d="M705.8405151,126.0133057c-1.0957642,3.8937225-4.6637573,6.5934143-8.7396851,6.612854H595.1672363
			c-2.4195557,0.1772308-4.7631836-0.8814392-6.2165527-2.808136c-1.3981323-2.0505676-1.71875-4.6422043-0.8618774-6.967186
			l24.8615112-88.7973938h19.7838135l-22.2132568,79.394104h79.1129761l22.2132568-79.394104h19.7794189L705.8405151,126.0133057z"
			/>
		<polygon fill="#078142" points="931.8361206,33.9294205 956.8405762,83.2578583 904.2593384,132.5862885 		"/>
		<polygon fill="#EA7726" points="914.267395,33.9294205 939.2717896,83.2578583 886.6503906,132.5862885 		"/>
	</g>
	<g id="donateW">
		<g>
			<path fill="#FFFFFF" d="M73.299202,107.6550522c0-13.125,6.8129807-21.4408417,17.2328186-21.4408417
				c5.9112625,0,10.6202316,3.1059189,12.8244324,7.7146912h0.2003784V76.2953262
				c0-3.3062973,2.0038147-5.1097336,4.809166-5.1097336c2.8053436,0,4.9093475,1.8034439,4.9093475,5.1097336v47.9914169
				c0,3.1059113-2.0038147,4.9093475-4.8091583,4.9093475c-2.8053513,0-4.9093552-1.7032394-4.9093552-4.9093475v-3.2061157
				h-0.2003784c-2.0038147,4.809166-6.4122162,8.015274-12.9246216,8.015274
				C80.0119858,129.0959015,73.299202,120.880249,73.299202,107.6550522z M103.5568314,107.6550522
				c0-8.1154556-4.007637-13.4255753-10.2194672-13.4255753c-6.3120193,0-10.2194595,5.2099228-10.2194595,13.4255753
				s3.9074478,13.4255753,10.2194595,13.4255753C99.5491943,121.0806274,103.5568314,115.8707047,103.5568314,107.6550522z"/>
			<path fill="#FFFFFF" d="M205.7514801,128.7953186c-3.3062897,0-5.2099152-2.0038147-5.2099152-5.7108765v-19.737587
				c0-5.4103088-2.7051544-8.5162201-7.5143127-8.5162201c-5.4102936,0-8.7165985,3.9074402-8.7165985,10.4198456v17.8339615
				c0,3.6068802-1.9036255,5.7108765-5.2099152,5.7108765c-3.3063049,0-5.2099304-2.0038147-5.2099304-5.7108765V92.0252838
				c0-3.4064865,2.0038147-5.510498,5.1097412-5.510498s4.9093475,1.8034439,5.0095367,5.2099228v2.5047684h0.5009613
				c1.6030579-4.9093475,6.312027-8.0152664,12.3234711-8.0152664c8.816803,0,13.8263397,5.2099228,13.8263397,14.3272934
				v22.5429382C210.8612213,126.7915039,209.057785,128.7953186,205.7514801,128.7953186z"/>
			<path fill="#FFFFFF" d="M232.302063,128.995697c-8.1154633,0-13.6259613-5.1097336-13.6259613-12.6240463
				c0-7.7146912,5.7108765-12.4236603,15.1288147-12.4236603h9.8187103v-3.4064941
				c0-4.2080078-2.6049652-6.4122162-7.3139343-6.4122162c-3.1059265,0-5.4102936,1.2022934-7.7146912,3.2061081
				c-1.2022858,0.9017181-2.3043976,1.4026718-3.9074402,1.4026718c-2.3043823,0-3.7070618-1.502861-3.7070618-3.6068649
				c0-2.4045868,1.7032471-4.9093552,5.3101196-6.7127838c2.6049805-1.4026794,6.1116486-2.1040115,10.6202393-2.1040115
				c10.9207916,0,17.0324402,5.2099228,17.0324402,14.3272934v22.7433243c0,3.5066833-1.8034363,5.5105057-5.0095367,5.5105057
				c-2.7051544,0-4.5085907-1.5028687-4.8091583-4.2080154v-1.4026794h-0.5009613
				C241.4194336,126.8917007,237.3115997,128.995697,232.302063,128.995697z M235.7085419,121.5815811
				c4.5085907,0,7.9150696-3.005722,7.9150696-7.0133591v-4.3082047h-8.015274
				c-4.2080078,0-6.7127686,2.0038147-6.7127686,5.4103012C228.8955841,119.177002,231.7009125,121.5815811,235.7085419,121.5815811
				z"/>
			<path fill="#FFFFFF" d="M266.667511,95.3315887h-2.1040344c-2.8053284,0-4.4083862-1.5028687-4.4083862-4.007637
				s1.6030579-4.007637,4.4083862-4.007637h2.3043823v-5.4103012c0-3.6068726,1.8034363-5.510498,5.009552-5.510498
				s5.009552,2.0038147,5.009552,5.510498v5.4103012h4.1078186c2.8053284,0,4.4083862,1.5028687,4.4083862,4.007637
				s-1.6030579,4.007637-4.4083862,4.007637h-4.0076294v20.9398804c0,3.8072586,1.0018921,5.0095444,4.1078186,5.0095444
				c1.1021118,0,1.8034363-0.2003784,2.7051697-0.2003784c1.8034363,0,3.0057373,1.2022858,3.0057373,3.1059189
				c0,1.502861-0.701355,2.8053436-2.1040344,3.7070541c-1.4026489,0.9017105-3.6068726,1.4026718-6.4122009,1.4026718
				c-8.2156677,0-11.7223206-3.4064865-11.7223206-11.9227142V95.3315887H266.667511z"/>
			<path fill="#FFFFFF" d="M291.71521,105.0500946c0-11.3215714,7.5143127-19.0362625,18.635498-19.0362625
				c10.52005,0,18.0343628,7.5143127,18.0343628,17.7337799c0,4.6087723-1.3024597,6.2118301-5.2099304,6.2118301h-21.0400696
				v1.8034363c0,5.8110733,3.7070618,9.5181274,9.8186646,9.5181274c3.2061157,0,5.510498-0.8015289,7.3139343-2.30439
				c2.0038147-1.502861,2.7051697-2.1040039,4.308197-2.1040039c2.1040039,0,3.6068726,1.502861,3.6068726,3.807251
				c0,1.8034363-1.1021118,3.6068726-3.1059265,5.009552c-2.7051697,2.30439-7.5143127,3.7070541-12.8244019,3.7070541
				c-12.1231079,0-19.6374207-7.1135483-19.6374207-18.9360657v-5.4103088H291.71521z M318.5663757,103.4470444
				L318.5663757,103.4470444c0-5.7108765-3.1059265-9.4179459-8.0152588-9.4179459
				c-5.1097412,0-8.3158264,3.8072586-8.3158264,9.3177567v0.1001892H318.5663757z"/>
			<path fill="#FFFFFF" d="M360.0453796,94.1292877c-0.3005676-1.2022858-0.4007568-1.9036255-0.4007568-2.5047684
				c0-2.9055328,2.1040039-5.0095444,5.2099304-5.0095444c2.7051697,0,4.508606,1.8034439,5.009552,5.1097336l5.2099304,25.9494324
				h0.500946l6.211853-24.5467606c1.202301-4.8091583,2.9055176-6.6125946,6.3120117-6.6125946
				s5.2099304,1.8034439,6.4122009,6.6125946l6.3120117,24.5467606h0.500946l5.4103088-25.9494324
				c0.6011658-3.2061005,2.4045715-5.1097336,5.009552-5.1097336c3.1059265,0,5.0095215,2.0038223,5.0095215,4.7089691
				c0,0.6011429-0.2003784,1.502861-0.500946,2.7051468l-7.2137451,26.5505753
				c-1.7032471,6.2118378-3.7070618,8.2156525-7.3139343,8.2156525c-3.9074097,0-5.9112549-2.0038147-7.5143127-8.2156448
				l-6.0114441-21.8416061h-0.4007568l-5.8110352,21.8416061c-1.6030884,6.312027-3.4064941,8.2156448-7.3139343,8.2156448
				c-3.807251,0-5.9112549-2.1040115-7.5143127-8.2156448L360.0453796,94.1292877z"/>
			<path fill="#FFFFFF" d="M427.5740051,70.9852066c3.4064636,0,5.9112549,2.3043976,5.9112549,5.4103088
				s-2.5047913,5.4103088-5.9112549,5.4103088c-3.3063049,0-5.8110657-2.3043976-5.8110657-5.4103088
				S424.2677002,70.9852066,427.5740051,70.9852066z M427.5740051,128.7953186
				c-3.2061157,0-5.1097412-2.0038147-5.1097412-5.7108765V92.2256622c0-3.807251,2.0038147-5.7108765,5.2099304-5.7108765
				s5.1097412,2.0038223,5.1097412,5.7108765v30.9589691C432.7839355,126.8917007,430.7801208,128.7953186,427.5740051,128.7953186z
				"/>
			<path fill="#FFFFFF" d="M444.7066345,95.3315887h-2.1040039c-2.8053284,0-4.4083862-1.5028687-4.4083862-4.007637
				s1.6030579-4.007637,4.4083862-4.007637h2.3043823v-5.4103012c0-3.6068726,1.8034058-5.510498,5.0095215-5.510498
				s5.009552,2.0038147,5.009552,5.510498v5.4103012h4.1078186c2.8053284,0,4.4084167,1.5028687,4.4084167,4.007637
				s-1.6030884,4.007637-4.4084167,4.007637h-4.0076294v20.9398804c0,3.8072586,1.0019226,5.0095444,4.1078491,5.0095444
				c1.1020813,0,1.8034058-0.2003784,2.7051392-0.2003784c1.8034363,0,3.0057373,1.2022858,3.0057373,3.1059189
				c0,1.502861-0.701355,2.8053436-2.1040039,3.7070541c-1.4026794,0.9017105-3.6068726,1.4026718-6.4122009,1.4026718
				c-8.2156677,0-11.7223511-3.4064865-11.7223511-11.9227142V95.3315887H444.7066345z"/>
			<path fill="#FFFFFF" d="M501.9156189,128.7953186c-3.3062744,0-5.2099304-2.0038147-5.2099304-5.7108765v-19.6373978
				c0-5.4103088-2.8053284-8.5162201-7.6145325-8.5162201c-5.3100891,0-8.8167725,4.0076294-8.8167725,10.4198456v17.8339691
				c0,3.6068802-1.9036255,5.7108841-5.2099304,5.7108841s-5.1097412-2.0038223-5.1097412-5.7108841V77.5978012
				c0-3.6068649,1.8034363-5.7108765,5.2099304-5.7108765c3.3063049,0,5.1097412,2.1040115,5.1097412,5.7108765v16.6316757h0.500946
				c1.4026794-4.7089615,6.5124207-8.0152664,12.4236755-8.0152664c8.6164246,0,13.8263245,5.4103088,13.8263245,14.4274826
				v22.442749C507.1255188,126.7915039,505.2218933,128.7953186,501.9156189,128.7953186z"/>
		</g>
		<path id="heart_2_" fill="#FFFFFF" d="M154.4537811,86.2142105c-4.3082123,0-8.5162201,2.1040115-10.8206177,6.7127838
			c-2.3043823-4.6087723-6.5124054-6.7127838-10.8206177-6.7127838c-6.7127762,0-12.7242279,4.7089691-12.7242279,13.125
			c0,14.2270966,19.4370117,21.4408417,23.5448456,29.9570694c4.1078339-8.5162277,23.5448456-15.7299652,23.5448456-29.9570694
			C167.178009,90.3220444,160.4652252,86.2142105,154.4537811,86.2142105z M150.3459473,96.2332993
			c3.005722,0,5.7108765,2.0038147,5.7108765,6.0114517c0,6.3120193-8.3158417,10.620224-12.8244324,15.2290039
			c-4.4083862-4.6087799-12.8244324-8.9169922-12.8244324-15.2290039c0-3.9074478,2.6049652-6.0114517,5.7108765-6.0114517
			c4.1078339,0,6.2118378,4.6087723,7.0133667,6.8129807C144.1341248,100.8420792,146.3383179,96.2332993,150.3459473,96.2332993z"
			/>
	</g>
</g>
</svg>
