<?xml version="1.0" encoding="utf-8"?>
<!-- Generator: Adobe Illustrator 27.1.1, SVG Export Plug-In . SVG Version: 6.00 Build 0)  -->
<svg version="1.1" id="Layer_1" xmlns="http://www.w3.org/2000/svg" xmlns:xlink="http://www.w3.org/1999/xlink" x="0px" y="0px"
	 viewBox="0 0 1050 200.3816833" style="enable-background:new 0 0 1050 200.3816833;" xml:space="preserve">
<style type="text/css">
	.st0{fill:#FFFFFF;}
	.st1{fill:#575756;}
</style>
<path d="M1015.1170654,200.3816833H34.8829117C15.6176109,200.3816833,0,184.7640686,0,165.498764V34.8829117
	C0,15.6176109,15.6176109,0,34.8829117,0h980.2341309C1034.3824463,0,1050,15.6176109,1050,34.8829117V165.498764
	C1050,184.7640686,1034.3824463,200.3816833,1015.1170654,200.3816833z"/>
<g id="donate">
	<g>
		<path class="st0" d="M73.299202,107.6550522c0-13.125,6.8129807-21.4408417,17.2328186-21.4408417
			c5.9112625,0,10.6202316,3.1059189,12.8244324,7.7146912h0.2003784V76.2953262
			c0-3.3062973,2.0038147-5.1097336,4.809166-5.1097336c2.8053436,0,4.9093475,1.8034439,4.9093475,5.1097336v47.9914169
			c0,3.1059113-2.0038147,4.9093475-4.8091583,4.9093475c-2.8053513,0-4.9093552-1.7032394-4.9093552-4.9093475v-3.2061157
			h-0.2003784c-2.0038147,4.809166-6.4122162,8.015274-12.9246216,8.015274
			C80.0119858,129.0959015,73.299202,120.880249,73.299202,107.6550522z M103.5568314,107.6550522
			c0-8.1154556-4.007637-13.4255753-10.2194672-13.4255753c-6.3120193,0-10.2194595,5.2099228-10.2194595,13.4255753
			s3.9074478,13.4255753,10.2194595,13.4255753C99.5491943,121.0806274,103.5568314,115.8707047,103.5568314,107.6550522z"/>
		<path class="st0" d="M205.7514801,128.7953186c-3.3062897,0-5.2099152-2.0038147-5.2099152-5.7108765v-19.737587
			c0-5.4103088-2.7051544-8.5162201-7.5143127-8.5162201c-5.4102936,0-8.7165985,3.9074402-8.7165985,10.4198456v17.8339615
			c0,3.6068802-1.9036255,5.7108765-5.2099152,5.7108765c-3.3063049,0-5.2099304-2.0038147-5.2099304-5.7108765V92.0252838
			c0-3.4064865,2.0038147-5.510498,5.1097412-5.510498s4.9093475,1.8034439,5.0095367,5.2099228v2.5047684h0.5009613
			c1.6030579-4.9093475,6.312027-8.0152664,12.3234711-8.0152664c8.816803,0,13.8263397,5.2099228,13.8263397,14.3272934v22.5429382
			C210.8612213,126.7915039,209.057785,128.7953186,205.7514801,128.7953186z"/>
		<path class="st0" d="M232.302063,128.995697c-8.1154633,0-13.6259613-5.1097336-13.6259613-12.6240463
			c0-7.7146912,5.7108765-12.4236603,15.1288147-12.4236603h9.8187103v-3.4064941
			c0-4.2080078-2.6049652-6.4122162-7.3139343-6.4122162c-3.1059265,0-5.4102936,1.2022934-7.7146912,3.2061081
			c-1.2022858,0.9017181-2.3043976,1.4026718-3.9074402,1.4026718c-2.3043823,0-3.7070618-1.502861-3.7070618-3.6068649
			c0-2.4045868,1.7032471-4.9093552,5.3101196-6.7127838c2.6049805-1.4026794,6.1116486-2.1040115,10.6202393-2.1040115
			c10.9207916,0,17.0324402,5.2099228,17.0324402,14.3272934v22.7433243c0,3.5066833-1.8034363,5.5105057-5.0095367,5.5105057
			c-2.7051544,0-4.5085907-1.5028687-4.8091583-4.2080154v-1.4026794h-0.5009613
			C241.4194336,126.8917007,237.3115997,128.995697,232.302063,128.995697z M235.7085419,121.5815811
			c4.5085907,0,7.9150696-3.005722,7.9150696-7.0133591v-4.3082047h-8.015274c-4.2080078,0-6.7127686,2.0038147-6.7127686,5.4103012
			C228.8955841,119.177002,231.7009125,121.5815811,235.7085419,121.5815811z"/>
		<path class="st0" d="M266.667511,95.3315887h-2.1040344c-2.8053284,0-4.4083862-1.5028687-4.4083862-4.007637
			s1.6030579-4.007637,4.4083862-4.007637h2.3043823v-5.4103012c0-3.6068726,1.8034363-5.510498,5.009552-5.510498
			s5.009552,2.0038147,5.009552,5.510498v5.4103012h4.1078186c2.8053284,0,4.4083862,1.5028687,4.4083862,4.007637
			s-1.6030579,4.007637-4.4083862,4.007637h-4.0076294v20.9398804c0,3.8072586,1.0018921,5.0095444,4.1078186,5.0095444
			c1.1021118,0,1.8034363-0.2003784,2.7051697-0.2003784c1.8034363,0,3.0057373,1.2022858,3.0057373,3.1059189
			c0,1.502861-0.701355,2.8053436-2.1040344,3.7070541c-1.4026489,0.9017105-3.6068726,1.4026718-6.4122009,1.4026718
			c-8.2156677,0-11.7223206-3.4064865-11.7223206-11.9227142V95.3315887H266.667511z"/>
		<path class="st0" d="M291.71521,105.0500946c0-11.3215714,7.5143127-19.0362625,18.635498-19.0362625
			c10.52005,0,18.0343628,7.5143127,18.0343628,17.7337799c0,4.6087723-1.3024597,6.2118301-5.2099304,6.2118301h-21.0400696
			v1.8034363c0,5.8110733,3.7070618,9.5181274,9.8186646,9.5181274c3.2061157,0,5.510498-0.8015289,7.3139343-2.30439
			c2.0038147-1.502861,2.7051697-2.1040039,4.308197-2.1040039c2.1040039,0,3.6068726,1.502861,3.6068726,3.807251
			c0,1.8034363-1.1021118,3.6068726-3.1059265,5.009552c-2.7051697,2.30439-7.5143127,3.7070541-12.8244019,3.7070541
			c-12.1231079,0-19.6374207-7.1135483-19.6374207-18.9360657v-5.4103088H291.71521z M318.5663757,103.4470444
			L318.5663757,103.4470444c0-5.7108765-3.1059265-9.4179459-8.0152588-9.4179459
			c-5.1097412,0-8.3158264,3.8072586-8.3158264,9.3177567v0.1001892H318.5663757z"/>
		<path class="st0" d="M360.0453796,94.1292877c-0.3005676-1.2022858-0.4007568-1.9036255-0.4007568-2.5047684
			c0-2.9055328,2.1040039-5.0095444,5.2099304-5.0095444c2.7051697,0,4.508606,1.8034439,5.009552,5.1097336l5.2099304,25.9494324
			h0.500946l6.211853-24.5467606c1.202301-4.8091583,2.9055176-6.6125946,6.3120117-6.6125946
			s5.2099304,1.8034439,6.4122009,6.6125946l6.3120117,24.5467606h0.500946l5.4103088-25.9494324
			c0.6011658-3.2061005,2.4045715-5.1097336,5.009552-5.1097336c3.1059265,0,5.0095215,2.0038223,5.0095215,4.7089691
			c0,0.6011429-0.2003784,1.502861-0.500946,2.7051468l-7.2137451,26.5505753
			c-1.7032471,6.2118378-3.7070618,8.2156525-7.3139343,8.2156525c-3.9074097,0-5.9112549-2.0038147-7.5143127-8.2156448
			l-6.0114441-21.8416061h-0.4007568l-5.8110352,21.8416061c-1.6030884,6.312027-3.4064941,8.2156448-7.3139343,8.2156448
			c-3.807251,0-5.9112549-2.1040115-7.5143127-8.2156448L360.0453796,94.1292877z"/>
		<path class="st0" d="M427.5740051,70.9852066c3.4064636,0,5.9112549,2.3043976,5.9112549,5.4103088
			s-2.5047913,5.4103088-5.9112549,5.4103088c-3.3063049,0-5.8110657-2.3043976-5.8110657-5.4103088
			S424.2677002,70.9852066,427.5740051,70.9852066z M427.5740051,128.7953186c-3.2061157,0-5.1097412-2.0038147-5.1097412-5.7108765
			V92.2256622c0-3.807251,2.0038147-5.7108765,5.2099304-5.7108765s5.1097412,2.0038223,5.1097412,5.7108765v30.9589691
			C432.7839355,126.8917007,430.7801208,128.7953186,427.5740051,128.7953186z"/>
		<path class="st0" d="M444.7066345,95.3315887h-2.1040039c-2.8053284,0-4.4083862-1.5028687-4.4083862-4.007637
			s1.6030579-4.007637,4.4083862-4.007637h2.3043823v-5.4103012c0-3.6068726,1.8034058-5.510498,5.0095215-5.510498
			s5.009552,2.0038147,5.009552,5.510498v5.4103012h4.1078186c2.8053284,0,4.4084167,1.5028687,4.4084167,4.007637
			s-1.6030884,4.007637-4.4084167,4.007637h-4.0076294v20.9398804c0,3.8072586,1.0019226,5.0095444,4.1078491,5.0095444
			c1.1020813,0,1.8034058-0.2003784,2.7051392-0.2003784c1.8034363,0,3.0057373,1.2022858,3.0057373,3.1059189
			c0,1.502861-0.701355,2.8053436-2.1040039,3.7070541c-1.4026794,0.9017105-3.6068726,1.4026718-6.4122009,1.4026718
			c-8.2156677,0-11.7223511-3.4064865-11.7223511-11.9227142V95.3315887H444.7066345z"/>
		<path class="st0" d="M501.9156189,128.7953186c-3.3062744,0-5.2099304-2.0038147-5.2099304-5.7108765v-19.6373978
			c0-5.4103088-2.8053284-8.5162201-7.6145325-8.5162201c-5.3100891,0-8.8167725,4.0076294-8.8167725,10.4198456v17.8339691
			c0,3.6068802-1.9036255,5.7108841-5.2099304,5.7108841s-5.1097412-2.0038223-5.1097412-5.7108841V77.5978012
			c0-3.6068649,1.8034363-5.7108765,5.2099304-5.7108765c3.3063049,0,5.1097412,2.1040115,5.1097412,5.7108765v16.6316757h0.500946
			c1.4026794-4.7089615,6.5124207-8.0152664,12.4236755-8.0152664c8.6164246,0,13.8263245,5.4103088,13.8263245,14.4274826
			v22.442749C507.1255188,126.7915039,505.2218933,128.7953186,501.9156189,128.7953186z"/>
	</g>
	<path id="heart_2_" class="st0" d="M154.4537811,86.2142105c-4.3082123,0-8.5162201,2.1040115-10.8206177,6.7127838
		c-2.3043823-4.6087723-6.5124054-6.7127838-10.8206177-6.7127838c-6.7127762,0-12.7242279,4.7089691-12.7242279,13.125
		c0,14.2270966,19.4370117,21.4408417,23.5448456,29.9570694c4.1078339-8.5162277,23.5448456-15.7299652,23.5448456-29.9570694
		C167.178009,90.3220444,160.4652252,86.2142105,154.4537811,86.2142105z M150.3459473,96.2332993
		c3.005722,0,5.7108765,2.0038147,5.7108765,6.0114517c0,6.3120193-8.3158417,10.620224-12.8244324,15.2290039
		c-4.4083862-4.6087799-12.8244324-8.9169922-12.8244324-15.2290039c0-3.9074478,2.6049652-6.0114517,5.7108765-6.0114517
		c4.1078339,0,6.2118378,4.6087723,7.0133667,6.8129807C144.1341248,100.8420792,146.3383179,96.2332993,150.3459473,96.2332993z"/>
</g>
<g>
	<path class="st0" d="M580.6658325,148.2615204h2.8313599l-2.652771,11.0396271
		c-0.4370728,1.2104645-0.3579712,2.547287,0.2188721,3.6977539c0.7337646,0.894928,1.8747559,1.3516693,3.0233765,1.2102509
		c1.3088379,0.0505676,2.5908813-0.3799591,3.6039429-1.2102509c1.0339355-0.9948578,1.7318115-2.2874756,1.9962769-3.6977539
		l2.6795044-11.0396423h2.8447876l-2.6795654,11.3031311c-0.3998413,2.138092-1.5148315,4.0766907-3.1618042,5.4974976
		c-1.6862183,1.2911377-3.7732544,1.9472809-5.8949585,1.8533325c-2.4338989,0-4.0996704-0.5894928-5.0062256-1.7863464
		c-0.9066162-1.1968536-1.0718384-3.0814362-0.5136108-5.5108795L580.6658325,148.2615204z"/>
	<path class="st0" d="M594.8092651,166.419754l4.5060425-18.8325806l8.5566406,11.1066284
		c0.2277222,0.3126221,0.4465332,0.6296844,0.6743164,0.9869537s0.4465942,0.7725983,0.7234497,1.2147217l3.0144653-12.5669861
		h2.6795654l-4.5239258,18.8192139l-8.7442017-11.3120575l-0.6698608-0.9467621
		c-0.2212524-0.3286743-0.4026489-0.6824646-0.5404053-1.0539398l-3.0233765,12.6384125h-2.65271V166.419754z"/>
	<path class="st0" d="M614.7181396,166.419754l4.3273926-18.1582489h2.8849487l-4.2872314,18.1582489H614.7181396z"/>
	<path class="st0" d="M621.6982422,166.419754l4.3721313-18.1582489h9.8695679l-0.6341553,2.4875031h-6.9801636
		l-1.0539551,4.5060577h6.9846191l-0.6251831,2.5723572h-7.0114136l-2.036438,8.5074921h-2.8850098V166.419754z"/>
	<path class="st0" d="M634.7922363,166.419754l4.3184814-18.1582489h2.8849487l-4.3184814,18.1582489H634.7922363z"/>
	<path class="st0" d="M641.7545166,166.419754l4.3274536-18.1582489h9.8695679l-0.5894775,2.4875031h-6.9846802l-1.053894,4.5507202
		h6.9846191l-0.6296997,2.5678864h-7.0158691l-1.4022827,5.8547516h6.9846191l-0.6341553,2.6795197L641.7545166,166.419754z"/>
	<path class="st0" d="M654.9511719,166.419754l4.3274536-18.1582489h3.8763428
		c1.7662354-0.0718994,3.5348511,0.0629883,5.2697754,0.4019318c0.8895264,0.2299652,1.7076416,0.6781769,2.3803101,1.3040466
		c0.8283691,0.8363037,1.3788452,1.907608,1.576416,3.0680542c0.2092285,1.4281006,0.1348877,2.8834381-0.218811,4.2827606
		c-0.3787231,1.5181885-1.0048828,2.963623-1.8533325,4.2783051c-0.7985229,1.223465-1.8434448,2.2668762-3.0680542,3.0635834
		c-0.9040527,0.6155701-1.9138184,1.0591431-2.9787598,1.3085022c-1.5372925,0.3173523-3.1069336,0.4507904-4.6757202,0.3974762
		h-4.6356201V166.419754z M658.4702759,163.7134399h2.4338989c1.0252686,0.0254669,2.0501099-0.0659027,3.0546875-0.2724152
		c0.6935425-0.1775513,1.348877-0.4802246,1.9337158-0.8931732c0.8248291-0.5875702,1.5183716-1.3404083,2.036438-2.2106171
		c0.5740356-0.9452667,0.9832764-1.9812012,1.2102661-3.0635834c0.2686768-0.9808502,0.3474731-2.0040283,0.2321777-3.0144653
		c-0.1070557-0.8179932-0.4517212-1.5866089-0.991394-2.2106018c-0.4251099-0.4499664-0.9760742-0.761261-1.5809326-0.8931885
		c-1.038269-0.2133331-2.0979004-0.3047638-3.1573486-0.2723999h-2.1079102L658.4702759,163.7134399z"/>
	<path class="st0" d="M685.359314,158.2472076l-1.9381714,8.16362h-2.6795654l4.3185425-18.1582489h4.3720703
		c0.93573-0.0263367,1.871521,0.0485229,2.7911377,0.2232971c0.5285645,0.0975494,1.0164795,0.3492584,1.4023438,0.723465
		c0.4759521,0.4559174,0.7896118,1.055069,0.8931274,1.7059784c0.1173096,0.7821198,0.0839844,1.5794678-0.0982056,2.3490448
		c-0.2050171,0.8504791-0.5620117,1.6568756-1.0539551,2.3803101c-0.4519653,0.6811829-1.0349121,1.2656555-1.7149048,1.7193604
		c-0.5446777,0.3303986-1.1387329,0.5716248-1.7595215,0.7145538c-0.9515381,0.1733246-1.9179688,0.2511139-2.8850098,0.2322083
		h-1.6657715L685.359314,158.2472076z M686.1497803,155.8356476h0.7189941
		c1.1397095,0.0805664,2.2823486-0.1075745,3.3359985-0.5493164c0.6700439-0.4241028,1.1292114-1.1120605,1.263855-1.8935242
		c0.2773438-0.6886292,0.1349487-1.4753113-0.3662109-2.0230408c-0.9065552-0.4950256-1.9428711-0.7007294-2.9697876-0.5894928
		h-0.7189941L686.1497803,155.8356476z"/>
	<path class="st0" d="M704.1918945,166.419754l-0.8931885-4.6846924h-7.038208l-3.1618042,4.6846924h-3.0189209
		l13.0805054-18.8325806l4.0192871,18.8325806H704.1918945z M697.9754028,159.274353h4.9124756l-0.8128052-4.153244
		c-0.0499268-0.2952728-0.0782471-0.5937805-0.0848389-0.8931885c-0.0446777-0.3703766-0.0626221-0.7434998-0.0535889-1.1164551
		c-0.1660156,0.3850098-0.3585205,0.7580566-0.5761108,1.1164551c-0.1603394,0.3296967-0.3438721,0.647583-0.5493164,0.9512329
		L697.9754028,159.274353z"/>
	<path class="st0" d="M711.3864136,166.419754l1.9783936-8.2886505l-3.5994873-9.8249359h3.0189209l2.2553101,6.1718445
		c0.0479736,0.2130127,0.107605,0.4232178,0.1785889,0.6296997c0.0848999,0.2723999,0.1384888,0.5359039,0.2233276,0.8127899
		l0.5358887-0.8127899c0.1920166-0.2724152,0.3706665-0.4957123,0.5493164-0.7145538l5.2652588-6.0869904h2.8849487
		l-8.427124,9.771347l-1.9649658,8.2886505h-2.8849487L711.3864136,166.419754z"/>
	<path class="st0" d="M738.7711792,157.4478149c0.026001-0.3921356,0.0722656-0.7826691,0.1384277-1.1700592
		c0.008667-0.4376221,0.0534668-0.8737946,0.1339722-1.3040314c-0.1786499,0.4063873-0.3572388,0.8083191-0.5894775,1.2638397
		c-0.2388306,0.4401093-0.5089722,0.8624573-0.8083496,1.2638245l-6.944397,9.6775818l-2.2329102-9.8606567
		c-0.0975952-0.3887482-0.1751099-0.7822723-0.2322388-1.1789856c-0.0484009-0.3703613-0.0767822-0.7430573-0.0848389-1.1164703
		c-0.093811,0.357254-0.2322388,0.759201-0.3662109,1.2147064c-0.1484985,0.4471436-0.3291016,0.8829651-0.5404053,1.3040466
		l-4.0549927,8.9317474h-2.652771l8.7397461-18.877243l2.4874878,11.4505157
		c0.057312,0.2953339,0.0990601,0.5934601,0.125061,0.8931732c0.046814,0.5310059,0.1243286,1.0588684,0.2322388,1.5809174
		c0.3170776-0.5359039,0.7145386-1.1700592,1.2637939-1.9783783c0.1112671-0.1588898,0.2126465-0.3244324,0.3037109-0.4957123
		l7.7974243-11.4504852l-0.2769165,18.9576416h-2.65271L738.7711792,157.4478149z"/>
	<path class="st0" d="M743.5630493,166.419754l4.3274536-18.1582489h9.8249512l-0.5582886,2.5187683h-7.0024414
		l-1.0361328,4.5507202h6.9667969l-0.6296997,2.5678864h-6.9846191l-1.4022827,5.8547516h6.9846191l-0.6296997,2.6795197
		L743.5630493,166.419754z"/>
	<path class="st0" d="M756.6748657,166.419754l4.5507202-18.8325806l8.5655518,11.1066284
		c0.218811,0.3126221,0.4465942,0.6296844,0.6743774,0.9869537s0.4465942,0.7725983,0.7234497,1.2147217l3.0144653-12.5669861
		h2.652771l-4.5150146,18.8192139l-8.7218628-11.3120575l-0.6564941-0.9467621
		c-0.2266235-0.3268433-0.4111938-0.680954-0.5493164-1.0539398l-3.0233765,12.6384125h-2.7062988L756.6748657,166.419754z"/>
	<path class="st0" d="M786.0513916,150.7490082l-3.737915,15.6305542h-2.8849487l3.737915-15.6305542h-4.6891479
		l0.5894775-2.5187683h12.2498779l-0.5760498,2.5187683H786.0513916z"/>
	<path class="st0" d="M789.0748291,162.7666779l2.5588989-1.0539398c-0.0168457,0.6958771,0.2623291,1.3662109,0.7681274,1.8444061
		c0.6047974,0.4550934,1.3526001,0.6784821,2.1079102,0.6296997c0.7966309,0.0237274,1.5761719-0.2339935,2.2016602-0.727951
		c0.6272583-0.478302,1.0615845-1.1662292,1.2236938-1.9381866c0.2723999-1.0494843-0.3617554-2.0185699-1.8980103-2.8313599
		c-0.156189-0.106369-0.3222046-0.1975861-0.4957275-0.2724152c-1.2817383-0.6072845-2.3950195-1.5196686-3.2422485-2.657196
		c-0.4555054-0.8919983-0.5498657-1.9252014-0.2634277-2.8849487c0.3338013-1.4359741,1.1602173-2.7095947,2.3356323-3.5995026
		c1.2071533-0.9289551,2.692688-1.4230804,4.2157593-1.4022827c1.0943604-0.0512695,2.1801758,0.2155304,3.1261597,0.7681274
		c0.7446899,0.5035553,1.2235107,1.3152618,1.3040161,2.2106171l-2.5410767,1.1700439
		c-0.1573486-0.494339-0.4534302-0.9330139-0.8530273-1.2638397c-0.3919678-0.2740021-0.8616333-0.4148865-1.3397217-0.4019318
		c-0.7124634-0.0203247-1.4105225,0.2034302-1.9783936,0.6341705c-0.5443726,0.4065857-0.9196777,0.9997101-1.0539551,1.6657715
		c-0.2768555,1.0494843,0.4957275,2.1034241,2.2329712,3.0635834c0.1021729,0.0655212,0.2080688,0.1251678,0.3170776,0.1786346
		c1.2058716,0.5246582,2.2474365,1.3656464,3.0144653,2.4338989c0.4682617,0.9183807,0.5657959,1.9815674,0.2723999,2.9698029
		c-0.3493042,1.6239624-1.2581787,3.0735016-2.5678711,4.0952148c-1.3286133,1.0190887-2.9613037,1.5617676-4.6356201,1.540741
		c-1.2479858,0.0851135-2.4840088-0.2898254-3.4744263-1.0539398
		C789.4613647,165.1414032,788.9577637,163.9656982,789.0748291,162.7666779z"/>
	<path class="st0" d="M810.3010864,166.419754l4.3184814-18.1582489h2.8850098l-4.3274536,18.1582489H810.3010864z"/>
	<path class="st0" d="M817.312561,166.419754l4.510498-18.8325806l8.5744629,11.0396423
		c0.2188721,0.3170776,0.4465942,0.6296844,0.6743774,0.9914246s0.4465942,0.7681274,0.7145386,1.2102509l3.0233765-12.5669708
		h2.652771l-4.4971924,18.8325958l-8.7307739-11.3120575l-0.6743164-0.9467621
		c-0.2266846-0.3268433-0.4111938-0.680954-0.5493164-1.0539398l-3.0100098,12.6384125h-2.6795044L817.312561,166.419754z"/>
	<path class="st0" d="M846.6488647,150.7490082l-3.7424316,15.6305542h-2.8849487l3.7379761-15.6305542h-4.6847534
		l0.5895386-2.5187683h12.2498779l-0.5805664,2.5187683H846.6488647z"/>
	<path class="st0" d="M849.7526855,166.419754l4.3318481-18.1582489h9.90979l-0.5894775,2.5187683h-6.9846191l-1.0539551,4.5507202
		h6.9846191l-0.6207275,2.5678864h-6.9846802l-1.3978271,5.8547516h6.9712524l-0.6296997,2.6795197L849.7526855,166.419754z"/>
	<path class="st0" d="M867.5536499,158.2472076l-1.9382324,8.1100311h-2.7062988l4.3587036-18.1448517h4.0192871
		c0.8983765-0.0223846,1.7966309,0.0509644,2.6795044,0.2188263c0.5611572,0.1021576,1.0790405,0.3696442,1.4871216,0.7681274
		c0.4551392,0.4659271,0.7532959,1.0623474,0.8529663,1.7059784c0.1254883,0.7646179,0.0966797,1.5466156-0.0848389,2.2999115
		c-0.2603149,1.3005066-0.9061279,2.4925232-1.8533325,3.4208679c-0.9458008,0.8351135-2.1265259,1.3576355-3.3806763,1.4960785
		l4.1086426,8.2350616h-3.2467041l-3.9389038-8.1100311H867.5536499z M868.3217163,156.0142822h0.5404053
		c1.0806885,0.0875702,2.1660767-0.0966644,3.1574097-0.5359192c0.651001-0.4537964,1.0882568-1.154007,1.2102051-1.9381866
		c0.2322388-0.9914246,0.1384888-1.7059631-0.312561-2.1078949c-0.8486938-0.52005-1.8468018-0.7416687-2.8358765-0.6296844
		h-0.5358887L868.3217163,156.0142822z"/>
	<path class="st0" d="M876.7488403,166.419754l4.3184814-18.1582489h9.8695679l-0.4956665,2.4875031h-6.9846191
		l-1.0494995,4.5060577h6.9801636l-0.6296387,2.5723572h-7.0560913l-2.036438,8.5074921h-2.9161987L876.7488403,166.419754z"/>
	<path class="st0" d="M900.5742798,166.419754l-0.8931274-4.6846924h-7.038269l-3.1573486,4.6846924h-3.0234375
		l13.0716553-18.8325806l4.0549927,18.8861847L900.5742798,166.419754z M894.3220825,159.274353h4.9124756l-0.8172607-4.153244
		c-0.060791-0.2939758-0.093689-0.5930328-0.0982666-0.8931885c-0.0222778-0.3718109-0.0222778-0.7446442,0-1.1164551
		c-0.1643066,0.3882751-0.3615112,0.7617798-0.5894775,1.1164551c-0.1557007,0.3294525-0.3348389,0.6473389-0.5358887,0.9512329
		L894.3220825,159.274353z"/>
	<path class="st0" d="M922.3364868,152.6737976c-0.6082153-0.6957092-1.3737793-1.2361755-2.2329102-1.5764465
		c-0.866333-0.3744202-1.8029175-0.55867-2.746521-0.5403748c-1.8918457-0.0074005-3.7241821,0.6609192-5.1669922,1.8845978
		c-1.5227661,1.2713013-2.5812988,3.0113831-3.0100098,4.9481812c-0.5125732,1.6365662-0.2824707,3.4155579,0.6296997,4.8678131
		c0.9126587,1.2951202,2.4395142,2.0144348,4.0192871,1.8935242c1.0704956,0.0092316,2.1324463-0.1910248,3.1260986-0.5895081
		c1.128479-0.4181366,2.1928101-0.9923706,3.1618652-1.7059631l-0.8485718,3.3449707
		c-0.8755493,0.5658112-1.8338013,0.9921722-2.840271,1.2638245c-0.9950562,0.2725067-2.0230103,0.40625-3.0546875,0.3974762
		c-1.2380371,0.0281067-2.4683228-0.2015381-3.612915-0.6743469c-1.0180664-0.4341583-1.9015503-1.1326447-2.5588989-2.0230408
		c-0.6862183-0.8910828-1.1239014-1.9482117-1.2683105-3.0635834c-0.187561-1.2627716-0.1115112-2.5506897,0.2232666-3.782608
		c0.3148193-1.3254242,0.8491821-2.5888367,1.5809326-3.7379303c0.7258301-1.1765594,1.6559448-2.214035,2.746521-3.0635834
		c1.0415039-0.8831482,2.2335815-1.5714722,3.519104-2.0319672c1.2244873-0.4486389,2.5186768-0.6769257,3.8227539-0.6743469
		c0.9800415-0.0153961,1.9555054,0.1356049,2.8850098,0.446579c0.8746338,0.3278046,1.6815186,0.8137512,2.3803101,1.433548
		L922.3364868,152.6737976z"/>
	<path class="st0" d="M922.6089478,166.419754l4.3184814-18.1582489h9.8606567l-0.5939941,2.5187683h-6.9801025
		l-1.0539551,4.5507202h6.9846191l-0.6341553,2.5678864h-6.9935913l-1.4022827,5.8547516h6.9980469l-0.6296997,2.6795197
		L922.6089478,166.419754z"/>
	<path class="st0" d="M870.1661377,132.4523163h-19.7480469l27.4472046-99.2496033h19.7793579L870.1661377,132.4523163z"/>
	<path class="st0" d="M859.8991089,36.3288269c-1.3486938-1.9084167-3.456604-2.8626251-6.3236694-2.8626251h-108.708313
		l-5.3590698,19.4622841h98.8476562l-5.7698975,20.7707863h-98.8387451l-16.3986816,59.23983h19.7793579l10.9860229-39.7462845
		h88.8977051c2.8573608-0.0196457,5.6218262-1.0173035,7.8331909-2.8269043
		c2.3408203-1.745224,4.0369873-4.2172775,4.8231201-7.0292816l10.9860229-39.7462921
		C861.5202026,40.5848045,861.2433472,38.1955643,859.8991089,36.3288269z"/>
	<path class="st0" d="M705.7996216,126.2268906c-1.0957642,3.9259262-4.6637573,6.6479568-8.7396851,6.6675491H595.1263428
		c-2.4195557,0.1786957-4.7631836-0.8887177-6.2165527-2.8313599c-1.3981323-2.0675278-1.71875-4.6805954-0.8618774-7.0248184
		l24.8615112-89.531868h19.7838135l-22.2132568,80.0508041h79.1129761l22.2132568-80.0508041h19.7793579L705.7996216,126.2268906z"
		/>
	<polygon class="st1" points="931.7952271,33.3813515 956.7996826,83.1177979 904.2184448,132.854248 	"/>
	<polygon class="st0" points="914.2265015,33.3813515 939.230896,83.1177979 886.6094971,132.854248 	"/>
</g>
</svg>
